<ttFont>
    <TTGlyph name="A" xMin="23" yMin="0" xMax="494" yMax="629">
      <contour>
        <pt x="277" y="629" on="1"/>
        <pt x="364" y="629" on="1"/>
        <pt x="494" y="0" on="1"/>
        <pt x="420" y="0" on="1"/>
        <pt x="387" y="160" on="1"/>
        <pt x="162" y="160" on="1"/>
        <pt x="98" y="0" on="1"/>
        <pt x="23" y="0" on="1"/>
      </contour>
      <contour>
        <pt x="186" y="222" on="1"/>
        <pt x="374" y="222" on="1"/>
        <pt x="310" y="533" on="1"/>
      </contour>
    </TTGlyph>
    <TTGlyph name="Aacute" xMin="23" yMin="0" xMax="494" yMax="860">
      <contour>
        <pt x="277" y="629" on="1"/>
        <pt x="364" y="629" on="1"/>
        <pt x="494" y="0" on="1"/>
        <pt x="420" y="0" on="1"/>
        <pt x="387" y="160" on="1"/>
        <pt x="162" y="160" on="1"/>
        <pt x="98" y="0" on="1"/>
        <pt x="23" y="0" on="1"/>
      </contour>
      <contour>
        <pt x="186" y="222" on="1"/>
        <pt x="374" y="222" on="1"/>
        <pt x="310" y="533" on="1"/>
      </contour>
      <contour>
        <pt x="456" y="790" on="1"/>
        <pt x="225" y="677" on="1"/>
        <pt x="209" y="727" on="1"/>
        <pt x="433" y="860" on="1"/>
      </contour>
    </TTGlyph>
    <TTGlyph name="Acircumflex" xMin="23" yMin="0" xMax="494" yMax="872">
      <contour>
        <pt x="277" y="629" on="1"/>
        <pt x="364" y="629" on="1"/>
        <pt x="494" y="0" on="1"/>
        <pt x="420" y="0" on="1"/>
        <pt x="387" y="160" on="1"/>
        <pt x="162" y="160" on="1"/>
        <pt x="98" y="0" on="1"/>
        <pt x="23" y="0" on="1"/>
      </contour>
      <contour>
        <pt x="186" y="222" on="1"/>
        <pt x="374" y="222" on="1"/>
        <pt x="310" y="533" on="1"/>
      </contour>
      <contour>
        <pt x="489" y="716" on="1"/>
        <pt x="441" y="677" on="1"/>
        <pt x="334" y="785" on="1"/>
        <pt x="207" y="677" on="1"/>
        <pt x="166" y="716" on="1"/>
        <pt x="342" y="872" on="1"/>
      </contour>
    </TTGlyph>
    <TTGlyph name="Adieresis" xMin="23" yMin="0" xMax="494" yMax="835">
      <contour>
        <pt x="277" y="629" on="1"/>
        <pt x="364" y="629" on="1"/>
        <pt x="494" y="0" on="1"/>
        <pt x="420" y="0" on="1"/>
        <pt x="387" y="160" on="1"/>
        <pt x="162" y="160" on="1"/>
        <pt x="98" y="0" on="1"/>
        <pt x="23" y="0" on="1"/>
      </contour>
      <contour>
        <pt x="186" y="222" on="1"/>
        <pt x="374" y="222" on="1"/>
        <pt x="310" y="533" on="1"/>
      </contour>
      <contour>
        <pt x="251" y="735" on="0"/>
        <pt x="228" y="764" on="0"/>
        <pt x="232" y="806" on="0"/>
        <pt x="261" y="835" on="0"/>
        <pt x="302" y="835" on="0"/>
        <pt x="327" y="806" on="0"/>
        <pt x="323" y="764" on="0"/>
        <pt x="292" y="735" on="0"/>
      </contour>
      <contour>
        <pt x="402" y="735" on="0"/>
        <pt x="379" y="764" on="0"/>
        <pt x="383" y="806" on="0"/>
        <pt x="412" y="835" on="0"/>
        <pt x="453" y="835" on="0"/>
        <pt x="478" y="806" on="0"/>
        <pt x="474" y="764" on="0"/>
        <pt x="443" y="735" on="0"/>
      </contour>
    </TTGlyph>
    <TTGlyph name="Agrave" xMin="23" yMin="0" xMax="494" yMax="860">
      <contour>
        <pt x="277" y="629" on="1"/>
        <pt x="364" y="629" on="1"/>
        <pt x="494" y="0" on="1"/>
        <pt x="420" y="0" on="1"/>
        <pt x="387" y="160" on="1"/>
        <pt x="162" y="160" on="1"/>
        <pt x="98" y="0" on="1"/>
        <pt x="23" y="0" on="1"/>
      </contour>
      <contour>
        <pt x="186" y="222" on="1"/>
        <pt x="374" y="222" on="1"/>
        <pt x="310" y="533" on="1"/>
      </contour>
      <contour>
        <pt x="252" y="860" on="1"/>
        <pt x="451" y="727" on="1"/>
        <pt x="426" y="677" on="1"/>
        <pt x="216" y="790" on="1"/>
      </contour>
    </TTGlyph>
    <TTGlyph name="Atilde" xMin="23" yMin="0" xMax="494" yMax="842">
      <contour>
        <pt x="277" y="629" on="1"/>
        <pt x="364" y="629" on="1"/>
        <pt x="494" y="0" on="1"/>
        <pt x="420" y="0" on="1"/>
        <pt x="387" y="160" on="1"/>
        <pt x="162" y="160" on="1"/>
        <pt x="98" y="0" on="1"/>
        <pt x="23" y="0" on="1"/>
      </contour>
      <contour>
        <pt x="186" y="222" on="1"/>
        <pt x="374" y="222" on="1"/>
        <pt x="310" y="533" on="1"/>
      </contour>
      <contour>
        <pt x="271" y="770" on="1"/>
        <pt x="241" y="770" on="0"/>
        <pt x="215" y="719" on="1"/>
        <pt x="188" y="738" on="1"/>
        <pt x="220" y="842" on="0"/>
        <pt x="278" y="842" on="1"/>
        <pt x="297" y="842" on="0"/>
        <pt x="354" y="808" on="0"/>
        <pt x="372" y="798" on="0"/>
        <pt x="378" y="795" on="1"/>
        <pt x="388" y="790" on="0"/>
        <pt x="399" y="790" on="1"/>
        <pt x="428" y="790" on="0"/>
        <pt x="451" y="842" on="1"/>
        <pt x="480" y="819" on="1"/>
        <pt x="466" y="771" on="0"/>
        <pt x="417" y="719" on="0"/>
        <pt x="379" y="719" on="0"/>
        <pt x="351" y="731" on="0"/>
        <pt x="325" y="746" on="1"/>
        <pt x="286" y="770" on="0"/>
      </contour>
    </TTGlyph>
    <TTGlyph name="B" xMin="91" yMin="0" xMax="538" yMax="629">
      <contour>
        <pt x="150" y="629" on="1"/>
        <pt x="362" y="629" on="1"/>
        <pt x="451" y="629" on="0"/>
        <pt x="497" y="580" on="1"/>
        <pt x="538" y="536" on="0"/>
        <pt x="532" y="473" on="1"/>
        <pt x="520" y="344" on="0"/>
        <pt x="410" y="316" on="1"/>
        <pt x="462" y="306" on="0"/>
        <pt x="490" y="266" on="1"/>
        <pt x="535" y="200" on="0"/>
        <pt x="498" y="109" on="1"/>
        <pt x="472" y="44" on="0"/>
        <pt x="397" y="15" on="1"/>
        <pt x="358" y="0" on="0"/>
        <pt x="303" y="0" on="1"/>
        <pt x="91" y="0" on="1"/>
      </contour>
      <contour>
        <pt x="308" y="69" on="1"/>
        <pt x="427" y="69" on="0"/>
        <pt x="438" y="175" on="1"/>
        <pt x="443" y="223" on="0"/>
        <pt x="387" y="280" on="0"/>
        <pt x="328" y="280" on="1"/>
        <pt x="188" y="280" on="1"/>
        <pt x="168" y="69" on="1"/>
      </contour>
      <contour>
        <pt x="194" y="348" on="1"/>
        <pt x="333" y="348" on="1"/>
        <pt x="385" y="348" on="0"/>
        <pt x="452" y="405" on="0"/>
        <pt x="462" y="505" on="0"/>
        <pt x="407" y="561" on="0"/>
        <pt x="353" y="561" on="1"/>
        <pt x="214" y="561" on="1"/>
      </contour>
    </TTGlyph>
    <TTGlyph name="C" xMin="62" yMin="-11" xMax="553" yMax="640">
      <contour>
        <pt x="438" y="640" on="0"/>
        <pt x="539" y="539" on="0"/>
        <pt x="553" y="458" on="1"/>
        <pt x="474" y="441" on="1"/>
        <pt x="462" y="500" on="0"/>
        <pt x="391" y="569" on="0"/>
        <pt x="340" y="569" on="1"/>
        <pt x="270" y="569" on="0"/>
        <pt x="218" y="506" on="1"/>
        <pt x="164" y="438" on="0"/>
        <pt x="152" y="318" on="1"/>
        <pt x="136" y="136" on="0"/>
        <pt x="222" y="79" on="1"/>
        <pt x="251" y="60" on="0"/>
        <pt x="292" y="60" on="1"/>
        <pt x="360" y="60" on="0"/>
        <pt x="446" y="139" on="0"/>
        <pt x="452" y="204" on="1"/>
        <pt x="528" y="204" on="1"/>
        <pt x="518" y="104" on="0"/>
        <pt x="452" y="46" on="1"/>
        <pt x="387" y="-11" on="0"/>
        <pt x="285" y="-11" on="1"/>
        <pt x="174" y="-11" on="0"/>
        <pt x="117" y="80" on="1"/>
        <pt x="62" y="168" on="0"/>
        <pt x="76" y="318" on="1"/>
        <pt x="90" y="471" on="0"/>
        <pt x="168" y="558" on="1"/>
        <pt x="242" y="640" on="0"/>
      </contour>
    </TTGlyph>
    <TTGlyph name="D" xMin="90" yMin="0" xMax="582" yMax="629">
      <contour>
        <pt x="316" y="629" on="1"/>
        <pt x="444" y="629" on="0"/>
        <pt x="513" y="543" on="1"/>
        <pt x="582" y="457" on="0"/>
        <pt x="568" y="315" on="1"/>
        <pt x="554" y="172" on="0"/>
        <pt x="470" y="86" on="1"/>
        <pt x="385" y="0" on="0"/>
        <pt x="256" y="0" on="1"/>
        <pt x="90" y="0" on="1"/>
        <pt x="149" y="629" on="1"/>
      </contour>
      <contour>
        <pt x="167" y="69" on="1"/>
        <pt x="263" y="69" on="1"/>
        <pt x="356" y="69" on="0"/>
        <pt x="420" y="139" on="1"/>
        <pt x="482" y="207" on="0"/>
        <pt x="492" y="315" on="1"/>
        <pt x="502" y="423" on="0"/>
        <pt x="453" y="490" on="1"/>
        <pt x="402" y="559" on="0"/>
        <pt x="309" y="559" on="1"/>
        <pt x="213" y="559" on="1"/>
      </contour>
    </TTGlyph>
    <TTGlyph name="E" xMin="90" yMin="0" xMax="498" yMax="629">
      <contour>
        <pt x="149" y="629" on="1"/>
        <pt x="498" y="629" on="1"/>
        <pt x="490" y="561" on="1"/>
        <pt x="213" y="561" on="1"/>
        <pt x="193" y="350" on="1"/>
        <pt x="454" y="350" on="1"/>
        <pt x="448" y="283" on="1"/>
        <pt x="187" y="283" on="1"/>
        <pt x="167" y="69" on="1"/>
        <pt x="445" y="69" on="1"/>
        <pt x="438" y="0" on="1"/>
        <pt x="90" y="0" on="1"/>
      </contour>
    </TTGlyph>
    <TTGlyph name="Eacute" xMin="90" yMin="0" xMax="498" yMax="860">
      <contour>
        <pt x="90" y="0" on="1"/>
        <pt x="149" y="629" on="1"/>
        <pt x="498" y="629" on="1"/>
        <pt x="490" y="561" on="1"/>
        <pt x="213" y="561" on="1"/>
        <pt x="193" y="350" on="1"/>
        <pt x="454" y="350" on="1"/>
        <pt x="448" y="283" on="1"/>
        <pt x="187" y="283" on="1"/>
        <pt x="167" y="69" on="1"/>
        <pt x="445" y="69" on="1"/>
        <pt x="438" y="0" on="1"/>
      </contour>
      <contour>
        <pt x="459" y="790" on="1"/>
        <pt x="228" y="677" on="1"/>
        <pt x="212" y="727" on="1"/>
        <pt x="436" y="860" on="1"/>
      </contour>
    </TTGlyph>
    <TTGlyph name="Ecircumflex" xMin="94" yMin="0" xMax="502" yMax="872">
      <contour>
        <pt x="153" y="629" on="1"/>
        <pt x="502" y="629" on="1"/>
        <pt x="494" y="561" on="1"/>
        <pt x="217" y="561" on="1"/>
        <pt x="197" y="350" on="1"/>
        <pt x="458" y="350" on="1"/>
        <pt x="452" y="283" on="1"/>
        <pt x="191" y="283" on="1"/>
        <pt x="171" y="69" on="1"/>
        <pt x="449" y="69" on="1"/>
        <pt x="442" y="0" on="1"/>
        <pt x="94" y="0" on="1"/>
      </contour>
      <contour>
        <pt x="498" y="716" on="1"/>
        <pt x="450" y="677" on="1"/>
        <pt x="343" y="785" on="1"/>
        <pt x="216" y="677" on="1"/>
        <pt x="175" y="716" on="1"/>
        <pt x="351" y="872" on="1"/>
      </contour>
    </TTGlyph>
    <TTGlyph name="Edieresis" xMin="90" yMin="0" xMax="498" yMax="835">
      <contour>
        <pt x="149" y="629" on="1"/>
        <pt x="498" y="629" on="1"/>
        <pt x="490" y="561" on="1"/>
        <pt x="213" y="561" on="1"/>
        <pt x="193" y="350" on="1"/>
        <pt x="454" y="350" on="1"/>
        <pt x="448" y="283" on="1"/>
        <pt x="187" y="283" on="1"/>
        <pt x="167" y="69" on="1"/>
        <pt x="445" y="69" on="1"/>
        <pt x="438" y="0" on="1"/>
        <pt x="90" y="0" on="1"/>
      </contour>
      <contour>
        <pt x="237" y="735" on="0"/>
        <pt x="214" y="764" on="0"/>
        <pt x="218" y="806" on="0"/>
        <pt x="247" y="835" on="0"/>
        <pt x="288" y="835" on="0"/>
        <pt x="313" y="806" on="0"/>
        <pt x="309" y="764" on="0"/>
        <pt x="278" y="735" on="0"/>
      </contour>
      <contour>
        <pt x="388" y="735" on="0"/>
        <pt x="365" y="764" on="0"/>
        <pt x="369" y="806" on="0"/>
        <pt x="398" y="835" on="0"/>
        <pt x="439" y="835" on="0"/>
        <pt x="464" y="806" on="0"/>
        <pt x="460" y="764" on="0"/>
        <pt x="429" y="735" on="0"/>
      </contour>
    </TTGlyph>
    <TTGlyph name="Egrave" xMin="90" yMin="0" xMax="498" yMax="860">
      <contour>
        <pt x="149" y="629" on="1"/>
        <pt x="498" y="629" on="1"/>
        <pt x="490" y="561" on="1"/>
        <pt x="213" y="561" on="1"/>
        <pt x="193" y="350" on="1"/>
        <pt x="454" y="350" on="1"/>
        <pt x="448" y="283" on="1"/>
        <pt x="187" y="283" on="1"/>
        <pt x="167" y="69" on="1"/>
        <pt x="445" y="69" on="1"/>
        <pt x="438" y="0" on="1"/>
        <pt x="90" y="0" on="1"/>
      </contour>
      <contour>
        <pt x="255" y="860" on="1"/>
        <pt x="454" y="727" on="1"/>
        <pt x="429" y="677" on="1"/>
        <pt x="219" y="790" on="1"/>
      </contour>
    </TTGlyph>
    <TTGlyph name="F" xMin="91" yMin="0" xMax="494" yMax="629">
      <contour>
        <pt x="150" y="629" on="1"/>
        <pt x="494" y="629" on="1"/>
        <pt x="487" y="561" on="1"/>
        <pt x="214" y="561" on="1"/>
        <pt x="194" y="352" on="1"/>
        <pt x="448" y="352" on="1"/>
        <pt x="442" y="284" on="1"/>
        <pt x="188" y="284" on="1"/>
        <pt x="162" y="0" on="1"/>
        <pt x="91" y="0" on="1"/>
      </contour>
    </TTGlyph>
    <TTGlyph name="G" xMin="61" yMin="-11" xMax="562" yMax="639">
      <contour>
        <pt x="451" y="109" on="1"/>
        <pt x="403" y="-11" on="0"/>
        <pt x="288" y="-11" on="1"/>
        <pt x="184" y="-11" on="0"/>
        <pt x="124" y="74" on="1"/>
        <pt x="61" y="164" on="0"/>
        <pt x="75" y="307" on="1"/>
        <pt x="88" y="462" on="0"/>
        <pt x="178" y="554" on="1"/>
        <pt x="259" y="639" on="0"/>
        <pt x="372" y="639" on="1"/>
        <pt x="507" y="639" on="0"/>
        <pt x="562" y="513" on="1"/>
        <pt x="491" y="487" on="1"/>
        <pt x="439" y="568" on="0"/>
        <pt x="362" y="568" on="1"/>
        <pt x="284" y="568" on="0"/>
        <pt x="224" y="498" on="1"/>
        <pt x="162" y="427" on="0"/>
        <pt x="150" y="307" on="1"/>
        <pt x="140" y="199" on="0"/>
        <pt x="180" y="130" on="1"/>
        <pt x="220" y="61" on="0"/>
        <pt x="300" y="61" on="1"/>
        <pt x="361" y="61" on="0"/>
        <pt x="450" y="151" on="0"/>
        <pt x="461" y="245" on="1"/>
        <pt x="462" y="251" on="1"/>
        <pt x="462" y="253" on="1"/>
        <pt x="320" y="259" on="1"/>
        <pt x="325" y="311" on="1"/>
        <pt x="536" y="311" on="1"/>
        <pt x="508" y="0" on="1"/>
        <pt x="450" y="0" on="1"/>
      </contour>
    </TTGlyph>
    <TTGlyph name="H" xMin="91" yMin="0" xMax="571" yMax="629">
      <contour>
        <pt x="221" y="629" on="1"/>
        <pt x="194" y="352" on="1"/>
        <pt x="472" y="352" on="1"/>
        <pt x="499" y="629" on="1"/>
        <pt x="571" y="629" on="1"/>
        <pt x="511" y="0" on="1"/>
        <pt x="440" y="0" on="1"/>
        <pt x="466" y="284" on="1"/>
        <pt x="188" y="284" on="1"/>
        <pt x="162" y="0" on="1"/>
        <pt x="91" y="0" on="1"/>
        <pt x="150" y="629" on="1"/>
      </contour>
    </TTGlyph>
    <TTGlyph name="I" xMin="91" yMin="0" xMax="221" yMax="629">
      <contour>
        <pt x="150" y="629" on="1"/>
        <pt x="221" y="629" on="1"/>
        <pt x="162" y="0" on="1"/>
        <pt x="91" y="0" on="1"/>
      </contour>
    </TTGlyph>
    <TTGlyph name="Iacute" xMin="74" yMin="0" xMax="321" yMax="860">
      <contour>
        <pt x="91" y="0" on="1"/>
        <pt x="150" y="629" on="1"/>
        <pt x="221" y="629" on="1"/>
        <pt x="162" y="0" on="1"/>
      </contour>
      <contour>
        <pt x="321" y="790" on="1"/>
        <pt x="90" y="677" on="1"/>
        <pt x="74" y="727" on="1"/>
        <pt x="298" y="860" on="1"/>
      </contour>
    </TTGlyph>
    <TTGlyph name="Icircumflex" xMin="32" yMin="0" xMax="355" yMax="872">
      <contour>
        <pt x="150" y="629" on="1"/>
        <pt x="221" y="629" on="1"/>
        <pt x="162" y="0" on="1"/>
        <pt x="91" y="0" on="1"/>
      </contour>
      <contour>
        <pt x="355" y="716" on="1"/>
        <pt x="307" y="677" on="1"/>
        <pt x="200" y="785" on="1"/>
        <pt x="73" y="677" on="1"/>
        <pt x="32" y="716" on="1"/>
        <pt x="208" y="872" on="1"/>
      </contour>
    </TTGlyph>
    <TTGlyph name="Idieresis" xMin="76" yMin="0" xMax="326" yMax="835">
      <contour>
        <pt x="150" y="629" on="1"/>
        <pt x="221" y="629" on="1"/>
        <pt x="162" y="0" on="1"/>
        <pt x="91" y="0" on="1"/>
      </contour>
      <contour>
        <pt x="99" y="735" on="0"/>
        <pt x="76" y="764" on="0"/>
        <pt x="80" y="806" on="0"/>
        <pt x="109" y="835" on="0"/>
        <pt x="150" y="835" on="0"/>
        <pt x="175" y="806" on="0"/>
        <pt x="171" y="764" on="0"/>
        <pt x="140" y="735" on="0"/>
      </contour>
      <contour>
        <pt x="250" y="735" on="0"/>
        <pt x="227" y="764" on="0"/>
        <pt x="231" y="806" on="0"/>
        <pt x="260" y="835" on="0"/>
        <pt x="301" y="835" on="0"/>
        <pt x="326" y="806" on="0"/>
        <pt x="322" y="764" on="0"/>
        <pt x="291" y="735" on="0"/>
      </contour>
    </TTGlyph>
    <TTGlyph name="Igrave" xMin="81" yMin="0" xMax="316" yMax="860">
      <contour>
        <pt x="150" y="629" on="1"/>
        <pt x="221" y="629" on="1"/>
        <pt x="162" y="0" on="1"/>
        <pt x="91" y="0" on="1"/>
      </contour>
      <contour>
        <pt x="117" y="860" on="1"/>
        <pt x="316" y="727" on="1"/>
        <pt x="291" y="677" on="1"/>
        <pt x="81" y="790" on="1"/>
      </contour>
    </TTGlyph>
    <TTGlyph name="J" xMin="10" yMin="-11" xMax="351" yMax="629">
      <contour>
        <pt x="17" y="113" on="1"/>
        <pt x="77" y="65" on="0"/>
        <pt x="187" y="65" on="0"/>
        <pt x="232" y="125" on="0"/>
        <pt x="238" y="182" on="1"/>
        <pt x="280" y="629" on="1"/>
        <pt x="351" y="629" on="1"/>
        <pt x="309" y="182" on="1"/>
        <pt x="298" y="79" on="0"/>
        <pt x="206" y="-11" on="0"/>
        <pt x="137" y="-11" on="1"/>
        <pt x="99" y="-11" on="0"/>
        <pt x="39" y="13" on="0"/>
        <pt x="10" y="31" on="1"/>
      </contour>
    </TTGlyph>
    <TTGlyph name="K" xMin="91" yMin="0" xMax="573" yMax="629">
      <contour>
        <pt x="222" y="629" on="1"/>
        <pt x="195" y="338" on="1"/>
        <pt x="475" y="629" on="1"/>
        <pt x="573" y="629" on="1"/>
        <pt x="299" y="347" on="1"/>
        <pt x="529" y="0" on="1"/>
        <pt x="437" y="0" on="1"/>
        <pt x="246" y="291" on="1"/>
        <pt x="184" y="228" on="1"/>
        <pt x="163" y="0" on="1"/>
        <pt x="91" y="0" on="1"/>
        <pt x="150" y="629" on="1"/>
      </contour>
    </TTGlyph>
    <TTGlyph name="L" xMin="91" yMin="0" xMax="420" yMax="629">
      <contour>
        <pt x="168" y="69" on="1"/>
        <pt x="420" y="69" on="1"/>
        <pt x="414" y="0" on="1"/>
        <pt x="91" y="0" on="1"/>
        <pt x="150" y="629" on="1"/>
        <pt x="221" y="629" on="1"/>
      </contour>
    </TTGlyph>
    <TTGlyph name="M" xMin="91" yMin="0" xMax="732" yMax="629">
      <contour>
        <pt x="252" y="629" on="1"/>
        <pt x="402" y="203" on="1"/>
        <pt x="632" y="629" on="1"/>
        <pt x="732" y="629" on="1"/>
        <pt x="672" y="0" on="1"/>
        <pt x="601" y="0" on="1"/>
        <pt x="649" y="516" on="1"/>
        <pt x="414" y="79" on="1"/>
        <pt x="366" y="79" on="1"/>
        <pt x="211" y="525" on="1"/>
        <pt x="162" y="0" on="1"/>
        <pt x="91" y="0" on="1"/>
        <pt x="150" y="629" on="1"/>
      </contour>
    </TTGlyph>
    <TTGlyph name="N" xMin="89" yMin="0" xMax="585" yMax="629">
      <contour>
        <pt x="233" y="629" on="1"/>
        <pt x="465" y="125" on="1"/>
        <pt x="514" y="629" on="1"/>
        <pt x="585" y="629" on="1"/>
        <pt x="526" y="0" on="1"/>
        <pt x="446" y="0" on="1"/>
        <pt x="209" y="513" on="1"/>
        <pt x="161" y="0" on="1"/>
        <pt x="89" y="0" on="1"/>
        <pt x="148" y="629" on="1"/>
      </contour>
    </TTGlyph>
    <TTGlyph name="Ntilde" xMin="89" yMin="0" xMax="585" yMax="842">
      <contour>
        <pt x="148" y="629" on="1"/>
        <pt x="233" y="629" on="1"/>
        <pt x="465" y="125" on="1"/>
        <pt x="514" y="629" on="1"/>
        <pt x="585" y="629" on="1"/>
        <pt x="526" y="0" on="1"/>
        <pt x="446" y="0" on="1"/>
        <pt x="209" y="513" on="1"/>
        <pt x="161" y="0" on="1"/>
        <pt x="89" y="0" on="1"/>
      </contour>
      <contour>
        <pt x="319" y="770" on="1"/>
        <pt x="289" y="770" on="0"/>
        <pt x="263" y="719" on="1"/>
        <pt x="236" y="738" on="1"/>
        <pt x="268" y="842" on="0"/>
        <pt x="326" y="842" on="1"/>
        <pt x="345" y="842" on="0"/>
        <pt x="402" y="808" on="0"/>
        <pt x="420" y="798" on="0"/>
        <pt x="426" y="795" on="1"/>
        <pt x="436" y="790" on="0"/>
        <pt x="447" y="790" on="1"/>
        <pt x="476" y="790" on="0"/>
        <pt x="499" y="842" on="1"/>
        <pt x="528" y="819" on="1"/>
        <pt x="514" y="771" on="0"/>
        <pt x="465" y="719" on="0"/>
        <pt x="427" y="719" on="0"/>
        <pt x="399" y="731" on="0"/>
        <pt x="373" y="746" on="1"/>
        <pt x="334" y="770" on="0"/>
      </contour>
    </TTGlyph>
    <TTGlyph name="O" xMin="61" yMin="-11" xMax="580" yMax="640">
      <contour>
        <pt x="351" y="640" on="1"/>
        <pt x="461" y="640" on="0"/>
        <pt x="519" y="558" on="1"/>
        <pt x="580" y="474" on="0"/>
        <pt x="566" y="314" on="1"/>
        <pt x="551" y="154" on="0"/>
        <pt x="472" y="69" on="1"/>
        <pt x="398" y="-11" on="0"/>
        <pt x="289" y="-11" on="1"/>
        <pt x="178" y="-11" on="0"/>
        <pt x="122" y="70" on="1"/>
        <pt x="61" y="156" on="0"/>
        <pt x="76" y="314" on="1"/>
        <pt x="89" y="472" on="0"/>
        <pt x="168" y="560" on="1"/>
        <pt x="241" y="640" on="0"/>
      </contour>
      <contour>
        <pt x="504" y="437" on="0"/>
        <pt x="423" y="569" on="0"/>
        <pt x="264" y="569" on="0"/>
        <pt x="161" y="437" on="0"/>
        <pt x="137" y="189" on="0"/>
        <pt x="217" y="61" on="0"/>
        <pt x="296" y="61" on="1"/>
        <pt x="375" y="61" on="0"/>
        <pt x="480" y="189" on="0"/>
      </contour>
    </TTGlyph>
    <TTGlyph name="Oacute" xMin="61" yMin="-11" xMax="580" yMax="860">
      <contour>
        <pt x="351" y="640" on="1"/>
        <pt x="461" y="640" on="0"/>
        <pt x="519" y="558" on="1"/>
        <pt x="580" y="474" on="0"/>
        <pt x="566" y="314" on="1"/>
        <pt x="551" y="154" on="0"/>
        <pt x="472" y="69" on="1"/>
        <pt x="398" y="-11" on="0"/>
        <pt x="289" y="-11" on="1"/>
        <pt x="178" y="-11" on="0"/>
        <pt x="122" y="70" on="1"/>
        <pt x="61" y="156" on="0"/>
        <pt x="76" y="314" on="1"/>
        <pt x="89" y="472" on="0"/>
        <pt x="168" y="560" on="1"/>
        <pt x="241" y="640" on="0"/>
      </contour>
      <contour>
        <pt x="264" y="569" on="0"/>
        <pt x="161" y="437" on="0"/>
        <pt x="137" y="189" on="0"/>
        <pt x="217" y="61" on="0"/>
        <pt x="296" y="61" on="1"/>
        <pt x="375" y="61" on="0"/>
        <pt x="480" y="189" on="0"/>
        <pt x="504" y="437" on="0"/>
        <pt x="423" y="569" on="0"/>
      </contour>
      <contour>
        <pt x="485" y="790" on="1"/>
        <pt x="254" y="677" on="1"/>
        <pt x="238" y="727" on="1"/>
        <pt x="462" y="860" on="1"/>
      </contour>
    </TTGlyph>
    <TTGlyph name="Ocircumflex" xMin="61" yMin="-11" xMax="580" yMax="872">
      <contour>
        <pt x="351" y="640" on="1"/>
        <pt x="461" y="640" on="0"/>
        <pt x="519" y="558" on="1"/>
        <pt x="580" y="474" on="0"/>
        <pt x="566" y="314" on="1"/>
        <pt x="551" y="154" on="0"/>
        <pt x="472" y="69" on="1"/>
        <pt x="398" y="-11" on="0"/>
        <pt x="289" y="-11" on="1"/>
        <pt x="178" y="-11" on="0"/>
        <pt x="122" y="70" on="1"/>
        <pt x="61" y="156" on="0"/>
        <pt x="76" y="314" on="1"/>
        <pt x="89" y="472" on="0"/>
        <pt x="168" y="560" on="1"/>
        <pt x="241" y="640" on="0"/>
      </contour>
      <contour>
        <pt x="504" y="437" on="0"/>
        <pt x="423" y="569" on="0"/>
        <pt x="264" y="569" on="0"/>
        <pt x="161" y="437" on="0"/>
        <pt x="137" y="189" on="0"/>
        <pt x="217" y="61" on="0"/>
        <pt x="296" y="61" on="1"/>
        <pt x="375" y="61" on="0"/>
        <pt x="480" y="189" on="0"/>
      </contour>
      <contour>
        <pt x="519" y="716" on="1"/>
        <pt x="471" y="677" on="1"/>
        <pt x="364" y="785" on="1"/>
        <pt x="237" y="677" on="1"/>
        <pt x="196" y="716" on="1"/>
        <pt x="372" y="872" on="1"/>
      </contour>
    </TTGlyph>
    <TTGlyph name="Odieresis" xMin="61" yMin="-11" xMax="580" yMax="835">
      <contour>
        <pt x="351" y="640" on="1"/>
        <pt x="461" y="640" on="0"/>
        <pt x="519" y="558" on="1"/>
        <pt x="580" y="474" on="0"/>
        <pt x="566" y="314" on="1"/>
        <pt x="551" y="154" on="0"/>
        <pt x="472" y="69" on="1"/>
        <pt x="398" y="-11" on="0"/>
        <pt x="289" y="-11" on="1"/>
        <pt x="178" y="-11" on="0"/>
        <pt x="122" y="70" on="1"/>
        <pt x="61" y="156" on="0"/>
        <pt x="76" y="314" on="1"/>
        <pt x="89" y="472" on="0"/>
        <pt x="168" y="560" on="1"/>
        <pt x="241" y="640" on="0"/>
      </contour>
      <contour>
        <pt x="504" y="437" on="0"/>
        <pt x="423" y="569" on="0"/>
        <pt x="264" y="569" on="0"/>
        <pt x="161" y="437" on="0"/>
        <pt x="137" y="189" on="0"/>
        <pt x="217" y="61" on="0"/>
        <pt x="296" y="61" on="1"/>
        <pt x="375" y="61" on="0"/>
        <pt x="480" y="189" on="0"/>
      </contour>
      <contour>
        <pt x="262" y="735" on="0"/>
        <pt x="239" y="764" on="0"/>
        <pt x="243" y="806" on="0"/>
        <pt x="272" y="835" on="0"/>
        <pt x="313" y="835" on="0"/>
        <pt x="338" y="806" on="0"/>
        <pt x="334" y="764" on="0"/>
        <pt x="303" y="735" on="0"/>
      </contour>
      <contour>
        <pt x="413" y="735" on="0"/>
        <pt x="390" y="764" on="0"/>
        <pt x="394" y="806" on="0"/>
        <pt x="423" y="835" on="0"/>
        <pt x="464" y="835" on="0"/>
        <pt x="489" y="806" on="0"/>
        <pt x="485" y="764" on="0"/>
        <pt x="454" y="735" on="0"/>
      </contour>
    </TTGlyph>
    <TTGlyph name="Ograve" xMin="61" yMin="-11" xMax="580" yMax="860">
      <contour>
        <pt x="351" y="640" on="1"/>
        <pt x="461" y="640" on="0"/>
        <pt x="519" y="558" on="1"/>
        <pt x="580" y="474" on="0"/>
        <pt x="566" y="314" on="1"/>
        <pt x="551" y="154" on="0"/>
        <pt x="472" y="69" on="1"/>
        <pt x="398" y="-11" on="0"/>
        <pt x="289" y="-11" on="1"/>
        <pt x="178" y="-11" on="0"/>
        <pt x="122" y="70" on="1"/>
        <pt x="61" y="156" on="0"/>
        <pt x="76" y="314" on="1"/>
        <pt x="89" y="472" on="0"/>
        <pt x="168" y="560" on="1"/>
        <pt x="241" y="640" on="0"/>
      </contour>
      <contour>
        <pt x="504" y="437" on="0"/>
        <pt x="423" y="569" on="0"/>
        <pt x="264" y="569" on="0"/>
        <pt x="161" y="437" on="0"/>
        <pt x="137" y="189" on="0"/>
        <pt x="217" y="61" on="0"/>
        <pt x="296" y="61" on="1"/>
        <pt x="375" y="61" on="0"/>
        <pt x="480" y="189" on="0"/>
      </contour>
      <contour>
        <pt x="281" y="860" on="1"/>
        <pt x="480" y="727" on="1"/>
        <pt x="455" y="677" on="1"/>
        <pt x="245" y="790" on="1"/>
      </contour>
    </TTGlyph>
    <TTGlyph name="Otilde" xMin="61" yMin="-11" xMax="580" yMax="842">
      <contour>
        <pt x="351" y="640" on="1"/>
        <pt x="461" y="640" on="0"/>
        <pt x="519" y="558" on="1"/>
        <pt x="580" y="474" on="0"/>
        <pt x="566" y="314" on="1"/>
        <pt x="551" y="154" on="0"/>
        <pt x="472" y="69" on="1"/>
        <pt x="398" y="-11" on="0"/>
        <pt x="289" y="-11" on="1"/>
        <pt x="178" y="-11" on="0"/>
        <pt x="122" y="70" on="1"/>
        <pt x="61" y="156" on="0"/>
        <pt x="76" y="314" on="1"/>
        <pt x="89" y="472" on="0"/>
        <pt x="168" y="560" on="1"/>
        <pt x="241" y="640" on="0"/>
      </contour>
      <contour>
        <pt x="264" y="569" on="0"/>
        <pt x="161" y="437" on="0"/>
        <pt x="137" y="189" on="0"/>
        <pt x="217" y="61" on="0"/>
        <pt x="296" y="61" on="1"/>
        <pt x="375" y="61" on="0"/>
        <pt x="480" y="189" on="0"/>
        <pt x="504" y="437" on="0"/>
        <pt x="423" y="569" on="0"/>
      </contour>
      <contour>
        <pt x="301" y="770" on="1"/>
        <pt x="271" y="770" on="0"/>
        <pt x="245" y="719" on="1"/>
        <pt x="218" y="738" on="1"/>
        <pt x="250" y="842" on="0"/>
        <pt x="308" y="842" on="1"/>
        <pt x="327" y="842" on="0"/>
        <pt x="384" y="808" on="0"/>
        <pt x="402" y="798" on="0"/>
        <pt x="408" y="795" on="1"/>
        <pt x="418" y="790" on="0"/>
        <pt x="429" y="790" on="1"/>
        <pt x="458" y="790" on="0"/>
        <pt x="481" y="842" on="1"/>
        <pt x="510" y="819" on="1"/>
        <pt x="496" y="771" on="0"/>
        <pt x="447" y="719" on="0"/>
        <pt x="409" y="719" on="0"/>
        <pt x="381" y="731" on="0"/>
        <pt x="355" y="746" on="1"/>
        <pt x="316" y="770" on="0"/>
      </contour>
    </TTGlyph>
    <TTGlyph name="P" xMin="89" yMin="0" xMax="513" yMax="629">
      <contour>
        <pt x="425" y="629" on="0"/>
        <pt x="513" y="524" on="0"/>
        <pt x="496" y="346" on="0"/>
        <pt x="388" y="243" on="0"/>
        <pt x="294" y="243" on="1"/>
        <pt x="183" y="243" on="1"/>
        <pt x="160" y="0" on="1"/>
        <pt x="89" y="0" on="1"/>
        <pt x="148" y="629" on="1"/>
        <pt x="331" y="629" on="1"/>
      </contour>
      <contour>
        <pt x="301" y="311" on="1"/>
        <pt x="359" y="311" on="0"/>
        <pt x="426" y="377" on="0"/>
        <pt x="436" y="492" on="0"/>
        <pt x="382" y="561" on="0"/>
        <pt x="324" y="561" on="1"/>
        <pt x="212" y="561" on="1"/>
        <pt x="189" y="311" on="1"/>
      </contour>
    </TTGlyph>
    <TTGlyph name="Q" xMin="60" yMin="-167" xMax="580" yMax="640">
      <contour>
        <pt x="440" y="-87" on="1"/>
        <pt x="478" y="-87" on="0"/>
        <pt x="530" y="-62" on="1"/>
        <pt x="522" y="-148" on="1"/>
        <pt x="484" y="-167" on="0"/>
        <pt x="444" y="-167" on="1"/>
        <pt x="368" y="-167" on="0"/>
        <pt x="321" y="-78" on="1"/>
        <pt x="285" y="-11" on="1"/>
        <pt x="177" y="-9" on="0"/>
        <pt x="120" y="72" on="1"/>
        <pt x="60" y="157" on="0"/>
        <pt x="76" y="314" on="1"/>
        <pt x="89" y="472" on="0"/>
        <pt x="168" y="560" on="1"/>
        <pt x="241" y="640" on="0"/>
        <pt x="351" y="640" on="1"/>
        <pt x="461" y="640" on="0"/>
        <pt x="519" y="558" on="1"/>
        <pt x="580" y="474" on="0"/>
        <pt x="566" y="314" on="1"/>
        <pt x="552" y="176" on="0"/>
        <pt x="439" y="21" on="0"/>
        <pt x="358" y="-2" on="1"/>
        <pt x="382" y="-46" on="1"/>
        <pt x="406" y="-85" on="0"/>
      </contour>
      <contour>
        <pt x="504" y="437" on="0"/>
        <pt x="423" y="569" on="0"/>
        <pt x="264" y="569" on="0"/>
        <pt x="161" y="437" on="0"/>
        <pt x="137" y="189" on="0"/>
        <pt x="217" y="61" on="0"/>
        <pt x="296" y="61" on="1"/>
        <pt x="375" y="61" on="0"/>
        <pt x="480" y="189" on="0"/>
      </contour>
    </TTGlyph>
    <TTGlyph name="R" xMin="91" yMin="0" xMax="534" yMax="629">
      <contour>
        <pt x="361" y="261" on="1"/>
        <pt x="499" y="0" on="1"/>
        <pt x="408" y="0" on="1"/>
        <pt x="285" y="257" on="1"/>
        <pt x="186" y="257" on="1"/>
        <pt x="162" y="0" on="1"/>
        <pt x="91" y="0" on="1"/>
        <pt x="150" y="629" on="1"/>
        <pt x="347" y="629" on="1"/>
        <pt x="443" y="629" on="0"/>
        <pt x="490" y="577" on="1"/>
        <pt x="534" y="527" on="0"/>
        <pt x="527" y="449" on="1"/>
        <pt x="511" y="287" on="0"/>
      </contour>
      <contour>
        <pt x="311" y="312" on="1"/>
        <pt x="375" y="312" on="0"/>
        <pt x="448" y="381" on="0"/>
        <pt x="458" y="494" on="0"/>
        <pt x="400" y="561" on="0"/>
        <pt x="340" y="561" on="1"/>
        <pt x="214" y="561" on="1"/>
        <pt x="191" y="312" on="1"/>
      </contour>
    </TTGlyph>
    <TTGlyph name="S" xMin="73" yMin="-11" xMax="507" yMax="640">
      <contour>
        <pt x="331" y="640" on="1"/>
        <pt x="418" y="640" on="0"/>
        <pt x="506" y="551" on="0"/>
        <pt x="507" y="476" on="1"/>
        <pt x="437" y="476" on="1"/>
        <pt x="435" y="520" on="0"/>
        <pt x="378" y="568" on="0"/>
        <pt x="267" y="568" on="0"/>
        <pt x="201" y="513" on="0"/>
        <pt x="194" y="436" on="0"/>
        <pt x="228" y="396" on="0"/>
        <pt x="269" y="381" on="1"/>
        <pt x="382" y="336" on="1"/>
        <pt x="441" y="313" on="0"/>
        <pt x="504" y="233" on="0"/>
        <pt x="498" y="167" on="1"/>
        <pt x="492" y="90" on="0"/>
        <pt x="432" y="40" on="1"/>
        <pt x="370" y="-11" on="0"/>
        <pt x="270" y="-11" on="1"/>
        <pt x="182" y="-11" on="0"/>
        <pt x="129" y="40" on="1"/>
        <pt x="73" y="94" on="0"/>
        <pt x="79" y="189" on="1"/>
        <pt x="148" y="189" on="1"/>
        <pt x="142" y="126" on="0"/>
        <pt x="181" y="92" on="1"/>
        <pt x="216" y="61" on="0"/>
        <pt x="338" y="61" on="0"/>
        <pt x="416" y="122" on="0"/>
        <pt x="424" y="205" on="0"/>
        <pt x="385" y="253" on="0"/>
        <pt x="343" y="269" on="1"/>
        <pt x="247" y="310" on="1"/>
        <pt x="179" y="336" on="0"/>
        <pt x="114" y="408" on="0"/>
        <pt x="120" y="474" on="1"/>
        <pt x="133" y="590" on="0"/>
        <pt x="246" y="628" on="1"/>
        <pt x="284" y="640" on="0"/>
      </contour>
    </TTGlyph>
    <TTGlyph name="T" xMin="58" yMin="0" xMax="505" yMax="629">
      <contour>
        <pt x="65" y="629" on="1"/>
        <pt x="505" y="629" on="1"/>
        <pt x="498" y="561" on="1"/>
        <pt x="313" y="561" on="1"/>
        <pt x="261" y="0" on="1"/>
        <pt x="190" y="0" on="1"/>
        <pt x="242" y="561" on="1"/>
        <pt x="58" y="561" on="1"/>
      </contour>
    </TTGlyph>
    <TTGlyph name="U" xMin="88" yMin="-11" xMax="568" yMax="629">
      <contour>
        <pt x="209" y="629" on="1"/>
        <pt x="170" y="227" on="1"/>
        <pt x="162" y="139" on="0"/>
        <pt x="233" y="61" on="0"/>
        <pt x="364" y="61" on="0"/>
        <pt x="450" y="139" on="0"/>
        <pt x="458" y="227" on="1"/>
        <pt x="497" y="629" on="1"/>
        <pt x="568" y="629" on="1"/>
        <pt x="529" y="227" on="1"/>
        <pt x="518" y="109" on="0"/>
        <pt x="390" y="-11" on="0"/>
        <pt x="193" y="-11" on="0"/>
        <pt x="88" y="109" on="0"/>
        <pt x="99" y="227" on="1"/>
        <pt x="138" y="629" on="1"/>
      </contour>
    </TTGlyph>
    <TTGlyph name="Uacute" xMin="88" yMin="-11" xMax="568" yMax="860">
      <contour>
        <pt x="138" y="629" on="1"/>
        <pt x="209" y="629" on="1"/>
        <pt x="170" y="227" on="1"/>
        <pt x="162" y="139" on="0"/>
        <pt x="233" y="61" on="0"/>
        <pt x="364" y="61" on="0"/>
        <pt x="450" y="139" on="0"/>
        <pt x="458" y="227" on="1"/>
        <pt x="497" y="629" on="1"/>
        <pt x="568" y="629" on="1"/>
        <pt x="529" y="227" on="1"/>
        <pt x="518" y="109" on="0"/>
        <pt x="390" y="-11" on="0"/>
        <pt x="193" y="-11" on="0"/>
        <pt x="88" y="109" on="0"/>
        <pt x="99" y="227" on="1"/>
      </contour>
      <contour>
        <pt x="488" y="790" on="1"/>
        <pt x="257" y="677" on="1"/>
        <pt x="241" y="727" on="1"/>
        <pt x="465" y="860" on="1"/>
      </contour>
    </TTGlyph>
    <TTGlyph name="Ucircumflex" xMin="88" yMin="-11" xMax="568" yMax="872">
      <contour>
        <pt x="209" y="629" on="1"/>
        <pt x="170" y="227" on="1"/>
        <pt x="162" y="139" on="0"/>
        <pt x="233" y="61" on="0"/>
        <pt x="364" y="61" on="0"/>
        <pt x="450" y="139" on="0"/>
        <pt x="458" y="227" on="1"/>
        <pt x="497" y="629" on="1"/>
        <pt x="568" y="629" on="1"/>
        <pt x="529" y="227" on="1"/>
        <pt x="518" y="109" on="0"/>
        <pt x="390" y="-11" on="0"/>
        <pt x="193" y="-11" on="0"/>
        <pt x="88" y="109" on="0"/>
        <pt x="99" y="227" on="1"/>
        <pt x="138" y="629" on="1"/>
      </contour>
      <contour>
        <pt x="522" y="716" on="1"/>
        <pt x="474" y="677" on="1"/>
        <pt x="367" y="785" on="1"/>
        <pt x="240" y="677" on="1"/>
        <pt x="199" y="716" on="1"/>
        <pt x="375" y="872" on="1"/>
      </contour>
    </TTGlyph>
    <TTGlyph name="Udieresis" xMin="88" yMin="-11" xMax="568" yMax="835">
      <contour>
        <pt x="209" y="629" on="1"/>
        <pt x="170" y="227" on="1"/>
        <pt x="162" y="139" on="0"/>
        <pt x="233" y="61" on="0"/>
        <pt x="364" y="61" on="0"/>
        <pt x="450" y="139" on="0"/>
        <pt x="458" y="227" on="1"/>
        <pt x="497" y="629" on="1"/>
        <pt x="568" y="629" on="1"/>
        <pt x="529" y="227" on="1"/>
        <pt x="518" y="109" on="0"/>
        <pt x="390" y="-11" on="0"/>
        <pt x="193" y="-11" on="0"/>
        <pt x="88" y="109" on="0"/>
        <pt x="99" y="227" on="1"/>
        <pt x="138" y="629" on="1"/>
      </contour>
      <contour>
        <pt x="265" y="735" on="0"/>
        <pt x="242" y="764" on="0"/>
        <pt x="246" y="806" on="0"/>
        <pt x="275" y="835" on="0"/>
        <pt x="316" y="835" on="0"/>
        <pt x="341" y="806" on="0"/>
        <pt x="337" y="764" on="0"/>
        <pt x="306" y="735" on="0"/>
      </contour>
      <contour>
        <pt x="416" y="735" on="0"/>
        <pt x="393" y="764" on="0"/>
        <pt x="397" y="806" on="0"/>
        <pt x="426" y="835" on="0"/>
        <pt x="467" y="835" on="0"/>
        <pt x="492" y="806" on="0"/>
        <pt x="488" y="764" on="0"/>
        <pt x="457" y="735" on="0"/>
      </contour>
    </TTGlyph>
    <TTGlyph name="Ugrave" xMin="88" yMin="-11" xMax="568" yMax="860">
      <contour>
        <pt x="209" y="629" on="1"/>
        <pt x="170" y="227" on="1"/>
        <pt x="162" y="139" on="0"/>
        <pt x="233" y="61" on="0"/>
        <pt x="364" y="61" on="0"/>
        <pt x="450" y="139" on="0"/>
        <pt x="458" y="227" on="1"/>
        <pt x="497" y="629" on="1"/>
        <pt x="568" y="629" on="1"/>
        <pt x="529" y="227" on="1"/>
        <pt x="518" y="109" on="0"/>
        <pt x="390" y="-11" on="0"/>
        <pt x="193" y="-11" on="0"/>
        <pt x="88" y="109" on="0"/>
        <pt x="99" y="227" on="1"/>
        <pt x="138" y="629" on="1"/>
      </contour>
      <contour>
        <pt x="284" y="860" on="1"/>
        <pt x="483" y="727" on="1"/>
        <pt x="458" y="677" on="1"/>
        <pt x="248" y="790" on="1"/>
      </contour>
    </TTGlyph>
    <TTGlyph name="V" xMin="76" yMin="0" xMax="550" yMax="629">
      <contour>
        <pt x="150" y="629" on="1"/>
        <pt x="262" y="98" on="1"/>
        <pt x="475" y="629" on="1"/>
        <pt x="550" y="629" on="1"/>
        <pt x="290" y="0" on="1"/>
        <pt x="216" y="0" on="1"/>
        <pt x="76" y="629" on="1"/>
      </contour>
    </TTGlyph>
    <TTGlyph name="W" xMin="72" yMin="0" xMax="851" yMax="629">
      <contour>
        <pt x="151" y="629" on="1"/>
        <pt x="239" y="107" on="1"/>
        <pt x="422" y="564" on="1"/>
        <pt x="470" y="564" on="1"/>
        <pt x="564" y="105" on="1"/>
        <pt x="773" y="629" on="1"/>
        <pt x="851" y="629" on="1"/>
        <pt x="592" y="0" on="1"/>
        <pt x="517" y="0" on="1"/>
        <pt x="432" y="402" on="1"/>
        <pt x="266" y="0" on="1"/>
        <pt x="192" y="0" on="1"/>
        <pt x="72" y="629" on="1"/>
      </contour>
    </TTGlyph>
    <TTGlyph name="X" xMin="43" yMin="0" xMax="584" yMax="629">
      <contour>
        <pt x="534" y="0" on="1"/>
        <pt x="445" y="0" on="1"/>
        <pt x="305" y="251" on="1"/>
        <pt x="130" y="0" on="1"/>
        <pt x="43" y="0" on="1"/>
        <pt x="272" y="312" on="1"/>
        <pt x="102" y="629" on="1"/>
        <pt x="187" y="629" on="1"/>
        <pt x="325" y="372" on="1"/>
        <pt x="499" y="629" on="1"/>
        <pt x="584" y="629" on="1"/>
        <pt x="358" y="313" on="1"/>
      </contour>
    </TTGlyph>
    <TTGlyph name="Y" xMin="68" yMin="0" xMax="544" yMax="629">
      <contour>
        <pt x="153" y="629" on="1"/>
        <pt x="278" y="340" on="1"/>
        <pt x="461" y="629" on="1"/>
        <pt x="544" y="629" on="1"/>
        <pt x="306" y="258" on="1"/>
        <pt x="282" y="0" on="1"/>
        <pt x="210" y="0" on="1"/>
        <pt x="234" y="258" on="1"/>
        <pt x="68" y="629" on="1"/>
      </contour>
    </TTGlyph>
    <TTGlyph name="Z" xMin="66" yMin="0" xMax="541" yMax="629">
      <contour>
        <pt x="72" y="71" on="1"/>
        <pt x="445" y="554" on="1"/>
        <pt x="118" y="557" on="1"/>
        <pt x="125" y="629" on="1"/>
        <pt x="541" y="629" on="1"/>
        <pt x="534" y="558" on="1"/>
        <pt x="161" y="75" on="1"/>
        <pt x="488" y="72" on="1"/>
        <pt x="481" y="0" on="1"/>
        <pt x="66" y="0" on="1"/>
      </contour>
    </TTGlyph>
    <TTGlyph name="a" xMin="75" yMin="-11" xMax="460" yMax="490">
      <contour>
        <pt x="386" y="310" on="1"/>
        <pt x="392" y="375" on="0"/>
        <pt x="349" y="431" on="0"/>
        <pt x="257" y="431" on="0"/>
        <pt x="196" y="391" on="0"/>
        <pt x="192" y="346" on="1"/>
        <pt x="113" y="346" on="1"/>
        <pt x="121" y="424" on="0"/>
        <pt x="227" y="490" on="0"/>
        <pt x="304" y="490" on="1"/>
        <pt x="425" y="490" on="0"/>
        <pt x="451" y="390" on="1"/>
        <pt x="460" y="356" on="0"/>
        <pt x="456" y="308" on="1"/>
        <pt x="427" y="0" on="1"/>
        <pt x="367" y="0" on="1"/>
        <pt x="367" y="80" on="1"/>
        <pt x="318" y="-11" on="0"/>
        <pt x="214" y="-11" on="1"/>
        <pt x="150" y="-11" on="0"/>
        <pt x="111" y="28" on="1"/>
        <pt x="75" y="64" on="0"/>
        <pt x="75" y="158" on="0"/>
        <pt x="104" y="216" on="0"/>
        <pt x="128" y="236" on="1"/>
        <pt x="178" y="275" on="0"/>
        <pt x="320" y="275" on="0"/>
        <pt x="380" y="249" on="1"/>
      </contour>
      <contour>
        <pt x="375" y="199" on="1"/>
        <pt x="313" y="219" on="0"/>
        <pt x="214" y="219" on="0"/>
        <pt x="151" y="174" on="0"/>
        <pt x="151" y="123" on="1"/>
        <pt x="151" y="91" on="0"/>
        <pt x="188" y="50" on="0"/>
        <pt x="235" y="50" on="1"/>
        <pt x="286" y="50" on="0"/>
        <pt x="326" y="87" on="1"/>
        <pt x="370" y="127" on="0"/>
        <pt x="374" y="190" on="1"/>
      </contour>
    </TTGlyph>
    <TTGlyph name="aacute" xMin="61" yMin="-11" xMax="451" yMax="731">
      <contour>
        <pt x="377" y="310" on="1"/>
        <pt x="383" y="375" on="0"/>
        <pt x="340" y="431" on="0"/>
        <pt x="248" y="431" on="0"/>
        <pt x="187" y="391" on="0"/>
        <pt x="183" y="346" on="1"/>
        <pt x="104" y="346" on="1"/>
        <pt x="112" y="424" on="0"/>
        <pt x="218" y="490" on="0"/>
        <pt x="295" y="490" on="1"/>
        <pt x="416" y="490" on="0"/>
        <pt x="442" y="390" on="1"/>
        <pt x="451" y="356" on="0"/>
        <pt x="447" y="308" on="1"/>
        <pt x="418" y="0" on="1"/>
        <pt x="357" y="0" on="1"/>
        <pt x="358" y="80" on="1"/>
        <pt x="309" y="-11" on="0"/>
        <pt x="205" y="-11" on="1"/>
        <pt x="136" y="-11" on="0"/>
        <pt x="97" y="34" on="1"/>
        <pt x="61" y="75" on="0"/>
        <pt x="67" y="134" on="1"/>
        <pt x="73" y="202" on="0"/>
        <pt x="125" y="240" on="1"/>
        <pt x="172" y="275" on="0"/>
        <pt x="311" y="275" on="0"/>
        <pt x="371" y="249" on="1"/>
      </contour>
      <contour>
        <pt x="366" y="199" on="1"/>
        <pt x="304" y="219" on="0"/>
        <pt x="209" y="219" on="0"/>
        <pt x="147" y="182" on="0"/>
        <pt x="139" y="99" on="0"/>
        <pt x="176" y="50" on="0"/>
        <pt x="275" y="50" on="0"/>
        <pt x="354" y="123" on="0"/>
        <pt x="365" y="185" on="1"/>
        <pt x="365" y="188" on="1"/>
      </contour>
      <contour>
        <pt x="436" y="661" on="1"/>
        <pt x="205" y="548" on="1"/>
        <pt x="189" y="598" on="1"/>
        <pt x="413" y="731" on="1"/>
      </contour>
    </TTGlyph>
    <TTGlyph name="acircumflex" xMin="61" yMin="-11" xMax="470" yMax="743">
      <contour>
        <pt x="377" y="310" on="1"/>
        <pt x="383" y="375" on="0"/>
        <pt x="340" y="431" on="0"/>
        <pt x="248" y="431" on="0"/>
        <pt x="187" y="391" on="0"/>
        <pt x="183" y="346" on="1"/>
        <pt x="104" y="346" on="1"/>
        <pt x="112" y="424" on="0"/>
        <pt x="218" y="490" on="0"/>
        <pt x="295" y="490" on="1"/>
        <pt x="416" y="490" on="0"/>
        <pt x="442" y="390" on="1"/>
        <pt x="451" y="356" on="0"/>
        <pt x="447" y="308" on="1"/>
        <pt x="418" y="0" on="1"/>
        <pt x="357" y="0" on="1"/>
        <pt x="358" y="80" on="1"/>
        <pt x="309" y="-11" on="0"/>
        <pt x="205" y="-11" on="1"/>
        <pt x="136" y="-11" on="0"/>
        <pt x="97" y="34" on="1"/>
        <pt x="61" y="75" on="0"/>
        <pt x="67" y="134" on="1"/>
        <pt x="73" y="202" on="0"/>
        <pt x="125" y="240" on="1"/>
        <pt x="172" y="275" on="0"/>
        <pt x="311" y="275" on="0"/>
        <pt x="371" y="249" on="1"/>
      </contour>
      <contour>
        <pt x="366" y="199" on="1"/>
        <pt x="304" y="219" on="0"/>
        <pt x="209" y="219" on="0"/>
        <pt x="147" y="182" on="0"/>
        <pt x="139" y="99" on="0"/>
        <pt x="176" y="50" on="0"/>
        <pt x="226" y="50" on="1"/>
        <pt x="277" y="50" on="0"/>
        <pt x="316" y="87" on="1"/>
        <pt x="355" y="126" on="0"/>
        <pt x="365" y="188" on="1"/>
      </contour>
      <contour>
        <pt x="470" y="587" on="1"/>
        <pt x="422" y="548" on="1"/>
        <pt x="315" y="656" on="1"/>
        <pt x="188" y="548" on="1"/>
        <pt x="147" y="587" on="1"/>
        <pt x="323" y="743" on="1"/>
      </contour>
    </TTGlyph>
    <TTGlyph name="acute" xMin="89" yMin="677" xMax="336" yMax="860">
      <contour>
        <pt x="336" y="790" on="1"/>
        <pt x="105" y="677" on="1"/>
        <pt x="89" y="727" on="1"/>
        <pt x="313" y="860" on="1"/>
      </contour>
    </TTGlyph>
    <TTGlyph name="adieresis" xMin="61" yMin="-11" xMax="451" yMax="705">
      <contour>
        <pt x="377" y="310" on="1"/>
        <pt x="383" y="375" on="0"/>
        <pt x="340" y="431" on="0"/>
        <pt x="248" y="431" on="0"/>
        <pt x="187" y="391" on="0"/>
        <pt x="183" y="346" on="1"/>
        <pt x="104" y="346" on="1"/>
        <pt x="112" y="424" on="0"/>
        <pt x="218" y="490" on="0"/>
        <pt x="295" y="490" on="1"/>
        <pt x="416" y="490" on="0"/>
        <pt x="442" y="390" on="1"/>
        <pt x="451" y="356" on="0"/>
        <pt x="447" y="308" on="1"/>
        <pt x="418" y="0" on="1"/>
        <pt x="357" y="0" on="1"/>
        <pt x="358" y="80" on="1"/>
        <pt x="309" y="-11" on="0"/>
        <pt x="205" y="-11" on="1"/>
        <pt x="136" y="-11" on="0"/>
        <pt x="97" y="34" on="1"/>
        <pt x="61" y="75" on="0"/>
        <pt x="67" y="134" on="1"/>
        <pt x="73" y="202" on="0"/>
        <pt x="125" y="240" on="1"/>
        <pt x="172" y="275" on="0"/>
        <pt x="311" y="275" on="0"/>
        <pt x="371" y="249" on="1"/>
      </contour>
      <contour>
        <pt x="366" y="199" on="1"/>
        <pt x="304" y="219" on="0"/>
        <pt x="209" y="219" on="0"/>
        <pt x="147" y="182" on="0"/>
        <pt x="139" y="99" on="0"/>
        <pt x="176" y="50" on="0"/>
        <pt x="226" y="50" on="1"/>
        <pt x="277" y="50" on="0"/>
        <pt x="316" y="87" on="1"/>
        <pt x="355" y="126" on="0"/>
        <pt x="365" y="188" on="1"/>
      </contour>
      <contour>
        <pt x="213" y="605" on="0"/>
        <pt x="190" y="634" on="0"/>
        <pt x="194" y="676" on="0"/>
        <pt x="223" y="705" on="0"/>
        <pt x="264" y="705" on="0"/>
        <pt x="289" y="676" on="0"/>
        <pt x="285" y="634" on="0"/>
        <pt x="254" y="605" on="0"/>
      </contour>
      <contour>
        <pt x="364" y="605" on="0"/>
        <pt x="341" y="634" on="0"/>
        <pt x="345" y="676" on="0"/>
        <pt x="374" y="705" on="0"/>
        <pt x="415" y="705" on="0"/>
        <pt x="440" y="676" on="0"/>
        <pt x="436" y="634" on="0"/>
        <pt x="405" y="605" on="0"/>
      </contour>
    </TTGlyph>
    <TTGlyph name="agrave" xMin="61" yMin="-11" xMax="451" yMax="731">
      <contour>
        <pt x="377" y="310" on="1"/>
        <pt x="383" y="375" on="0"/>
        <pt x="340" y="431" on="0"/>
        <pt x="248" y="431" on="0"/>
        <pt x="187" y="391" on="0"/>
        <pt x="183" y="346" on="1"/>
        <pt x="104" y="346" on="1"/>
        <pt x="112" y="424" on="0"/>
        <pt x="218" y="490" on="0"/>
        <pt x="295" y="490" on="1"/>
        <pt x="416" y="490" on="0"/>
        <pt x="442" y="390" on="1"/>
        <pt x="451" y="356" on="0"/>
        <pt x="447" y="308" on="1"/>
        <pt x="418" y="0" on="1"/>
        <pt x="357" y="0" on="1"/>
        <pt x="358" y="80" on="1"/>
        <pt x="309" y="-11" on="0"/>
        <pt x="205" y="-11" on="1"/>
        <pt x="136" y="-11" on="0"/>
        <pt x="97" y="34" on="1"/>
        <pt x="61" y="75" on="0"/>
        <pt x="67" y="134" on="1"/>
        <pt x="73" y="202" on="0"/>
        <pt x="125" y="240" on="1"/>
        <pt x="172" y="275" on="0"/>
        <pt x="311" y="275" on="0"/>
        <pt x="371" y="249" on="1"/>
      </contour>
      <contour>
        <pt x="366" y="199" on="1"/>
        <pt x="304" y="219" on="0"/>
        <pt x="209" y="219" on="0"/>
        <pt x="147" y="182" on="0"/>
        <pt x="139" y="99" on="0"/>
        <pt x="176" y="50" on="0"/>
        <pt x="275" y="50" on="0"/>
        <pt x="354" y="123" on="0"/>
        <pt x="365" y="185" on="1"/>
        <pt x="365" y="188" on="1"/>
      </contour>
      <contour>
        <pt x="232" y="731" on="1"/>
        <pt x="431" y="598" on="1"/>
        <pt x="406" y="548" on="1"/>
        <pt x="196" y="661" on="1"/>
      </contour>
    </TTGlyph>
    <TTGlyph name="ampersand" xMin="88" yMin="-11" xMax="795" yMax="639">
      <contour>
        <pt x="685" y="350" on="1"/>
        <pt x="630" y="210" on="0"/>
        <pt x="561" y="128" on="1"/>
        <pt x="596" y="91" on="1"/>
        <pt x="612" y="74" on="0"/>
        <pt x="639" y="58" on="0"/>
        <pt x="661" y="58" on="1"/>
        <pt x="683" y="58" on="0"/>
        <pt x="721" y="95" on="0"/>
        <pt x="728" y="140" on="1"/>
        <pt x="795" y="140" on="1"/>
        <pt x="784" y="68" on="0"/>
        <pt x="716" y="-11" on="0"/>
        <pt x="659" y="-11" on="1"/>
        <pt x="624" y="-11" on="0"/>
        <pt x="567" y="21" on="0"/>
        <pt x="535" y="56" on="1"/>
        <pt x="514" y="78" on="1"/>
        <pt x="417" y="-11" on="0"/>
        <pt x="301" y="-11" on="1"/>
        <pt x="207" y="-11" on="0"/>
        <pt x="146" y="42" on="1"/>
        <pt x="88" y="95" on="0"/>
        <pt x="103" y="242" on="0"/>
        <pt x="195" y="317" on="0"/>
        <pt x="280" y="332" on="1"/>
        <pt x="268" y="345" on="1"/>
        <pt x="204" y="413" on="0"/>
        <pt x="212" y="492" on="1"/>
        <pt x="218" y="556" on="0"/>
        <pt x="269" y="597" on="1"/>
        <pt x="322" y="639" on="0"/>
        <pt x="402" y="639" on="1"/>
        <pt x="475" y="639" on="0"/>
        <pt x="519" y="596" on="1"/>
        <pt x="561" y="556" on="0"/>
        <pt x="550" y="436" on="0"/>
        <pt x="472" y="350" on="0"/>
        <pt x="389" y="312" on="1"/>
        <pt x="519" y="173" on="1"/>
        <pt x="584" y="252" on="0"/>
        <pt x="638" y="380" on="1"/>
      </contour>
      <contour>
        <pt x="174" y="177" on="1"/>
        <pt x="169" y="128" on="0"/>
        <pt x="237" y="59" on="0"/>
        <pt x="309" y="59" on="1"/>
        <pt x="397" y="59" on="0"/>
        <pt x="471" y="125" on="1"/>
        <pt x="320" y="289" on="1"/>
        <pt x="181" y="270" on="0"/>
      </contour>
      <contour>
        <pt x="469" y="452" on="1"/>
        <pt x="476" y="469" on="0"/>
        <pt x="481" y="524" on="0"/>
        <pt x="436" y="572" on="0"/>
        <pt x="347" y="572" on="0"/>
        <pt x="292" y="517" on="0"/>
        <pt x="289" y="485" on="1"/>
        <pt x="283" y="426" on="0"/>
        <pt x="329" y="377" on="1"/>
        <pt x="352" y="352" on="1"/>
        <pt x="447" y="398" on="0"/>
      </contour>
    </TTGlyph>
    <TTGlyph name="apostrophe" xMin="74" yMin="419" xMax="220" yMax="625">
      <contour>
        <pt x="129" y="525" on="0"/>
        <pt x="103" y="551" on="0"/>
        <pt x="107" y="595" on="0"/>
        <pt x="139" y="625" on="0"/>
        <pt x="190" y="625" on="0"/>
        <pt x="220" y="580" on="0"/>
        <pt x="213" y="512" on="0"/>
        <pt x="166" y="441" on="0"/>
        <pt x="124" y="419" on="1"/>
        <pt x="74" y="448" on="1"/>
        <pt x="135" y="480" on="0"/>
        <pt x="149" y="523" on="1"/>
      </contour>
    </TTGlyph>
    <TTGlyph name="asciicircum" xMin="41" yMin="245" xMax="413" yMax="586">
      <contour>
        <pt x="41" y="245" on="1"/>
        <pt x="232" y="586" on="1"/>
        <pt x="287" y="586" on="1"/>
        <pt x="413" y="245" on="1"/>
        <pt x="334" y="245" on="1"/>
        <pt x="250" y="492" on="1"/>
        <pt x="121" y="245" on="1"/>
      </contour>
    </TTGlyph>
    <TTGlyph name="asciitilde" xMin="70" yMin="223" xMax="446" yMax="359">
      <contour>
        <pt x="168" y="282" on="1"/>
        <pt x="134" y="282" on="0"/>
        <pt x="108" y="223" on="1"/>
        <pt x="70" y="246" on="1"/>
        <pt x="111" y="357" on="0"/>
        <pt x="177" y="357" on="1"/>
        <pt x="207" y="357" on="0"/>
        <pt x="300" y="313" on="0"/>
        <pt x="333" y="302" on="0"/>
        <pt x="346" y="302" on="1"/>
        <pt x="382" y="302" on="0"/>
        <pt x="410" y="359" on="1"/>
        <pt x="446" y="332" on="1"/>
        <pt x="405" y="226" on="0"/>
        <pt x="335" y="226" on="1"/>
        <pt x="314" y="226" on="0"/>
        <pt x="213" y="270" on="0"/>
        <pt x="181" y="282" on="0"/>
      </contour>
    </TTGlyph>
    <TTGlyph name="asterisk" xMin="103" yMin="388" xMax="374" yMax="684">
      <contour>
        <pt x="204" y="516" on="1"/>
        <pt x="103" y="556" on="1"/>
        <pt x="130" y="610" on="1"/>
        <pt x="220" y="556" on="1"/>
        <pt x="222" y="684" on="1"/>
        <pt x="278" y="684" on="1"/>
        <pt x="257" y="556" on="1"/>
        <pt x="358" y="610" on="1"/>
        <pt x="374" y="556" on="1"/>
        <pt x="266" y="516" on="1"/>
        <pt x="338" y="427" on="1"/>
        <pt x="295" y="388" on="1"/>
        <pt x="233" y="492" on="1"/>
        <pt x="151" y="388" on="1"/>
        <pt x="114" y="427" on="1"/>
      </contour>
    </TTGlyph>
    <TTGlyph name="at" xMin="73" yMin="-181" xMax="839" yMax="640">
      <contour>
        <pt x="544" y="289" on="1"/>
        <pt x="549" y="332" on="0"/>
        <pt x="526" y="373" on="0"/>
        <pt x="472" y="373" on="0"/>
        <pt x="423" y="349" on="0"/>
        <pt x="402" y="327" on="1"/>
        <pt x="352" y="276" on="0"/>
        <pt x="346" y="202" on="1"/>
        <pt x="340" y="149" on="0"/>
        <pt x="384" y="91" on="0"/>
        <pt x="458" y="91" on="0"/>
        <pt x="509" y="138" on="0"/>
        <pt x="535" y="183" on="1"/>
      </contour>
      <contour>
        <pt x="280" y="578" on="0"/>
        <pt x="433" y="640" on="0"/>
        <pt x="597" y="640" on="0"/>
        <pt x="719" y="586" on="0"/>
        <pt x="801" y="493" on="0"/>
        <pt x="839" y="367" on="0"/>
        <pt x="826" y="234" on="0"/>
        <pt x="784" y="135" on="0"/>
        <pt x="754" y="100" on="1"/>
        <pt x="691" y="28" on="0"/>
        <pt x="613" y="28" on="1"/>
        <pt x="575" y="28" on="0"/>
        <pt x="532" y="64" on="0"/>
        <pt x="530" y="98" on="1"/>
        <pt x="528" y="114" on="1"/>
        <pt x="508" y="76" on="0"/>
        <pt x="450" y="28" on="0"/>
        <pt x="377" y="28" on="0"/>
        <pt x="328" y="53" on="0"/>
        <pt x="310" y="76" on="1"/>
        <pt x="271" y="126" on="0"/>
        <pt x="279" y="201" on="1"/>
        <pt x="289" y="300" on="0"/>
        <pt x="356" y="368" on="1"/>
        <pt x="420" y="435" on="0"/>
        <pt x="501" y="435" on="1"/>
        <pt x="555" y="435" on="0"/>
        <pt x="611" y="363" on="0"/>
        <pt x="604" y="290" on="1"/>
        <pt x="589" y="138" on="1"/>
        <pt x="585" y="87" on="0"/>
        <pt x="620" y="87" on="1"/>
        <pt x="661" y="87" on="0"/>
        <pt x="702" y="140" on="1"/>
        <pt x="750" y="200" on="0"/>
        <pt x="759" y="296" on="1"/>
        <pt x="769" y="415" on="0"/>
        <pt x="704" y="491" on="1"/>
        <pt x="638" y="569" on="0"/>
        <pt x="513" y="569" on="1"/>
        <pt x="370" y="569" on="0"/>
        <pt x="266" y="466" on="1"/>
        <pt x="168" y="367" on="0"/>
        <pt x="154" y="219" on="1"/>
        <pt x="138" y="68" on="0"/>
        <pt x="312" y="-117" on="0"/>
        <pt x="479" y="-117" on="1"/>
        <pt x="472" y="-181" on="1"/>
        <pt x="375" y="-181" on="0"/>
        <pt x="222" y="-120" on="0"/>
        <pt x="120" y="-12" on="0"/>
        <pt x="73" y="137" on="0"/>
        <pt x="89" y="315" on="0"/>
        <pt x="163" y="467" on="0"/>
      </contour>
    </TTGlyph>
    <TTGlyph name="atilde" xMin="61" yMin="-11" xMax="460" yMax="713">
      <contour>
        <pt x="377" y="310" on="1"/>
        <pt x="383" y="375" on="0"/>
        <pt x="340" y="431" on="0"/>
        <pt x="248" y="431" on="0"/>
        <pt x="187" y="391" on="0"/>
        <pt x="183" y="346" on="1"/>
        <pt x="104" y="346" on="1"/>
        <pt x="112" y="424" on="0"/>
        <pt x="218" y="490" on="0"/>
        <pt x="295" y="490" on="1"/>
        <pt x="416" y="490" on="0"/>
        <pt x="442" y="390" on="1"/>
        <pt x="451" y="356" on="0"/>
        <pt x="447" y="308" on="1"/>
        <pt x="418" y="0" on="1"/>
        <pt x="357" y="0" on="1"/>
        <pt x="358" y="80" on="1"/>
        <pt x="309" y="-11" on="0"/>
        <pt x="205" y="-11" on="1"/>
        <pt x="136" y="-11" on="0"/>
        <pt x="97" y="34" on="1"/>
        <pt x="61" y="75" on="0"/>
        <pt x="67" y="134" on="1"/>
        <pt x="73" y="202" on="0"/>
        <pt x="125" y="240" on="1"/>
        <pt x="172" y="275" on="0"/>
        <pt x="311" y="275" on="0"/>
        <pt x="371" y="249" on="1"/>
      </contour>
      <contour>
        <pt x="366" y="199" on="1"/>
        <pt x="304" y="219" on="0"/>
        <pt x="209" y="219" on="0"/>
        <pt x="147" y="182" on="0"/>
        <pt x="139" y="99" on="0"/>
        <pt x="176" y="50" on="0"/>
        <pt x="275" y="50" on="0"/>
        <pt x="354" y="123" on="0"/>
        <pt x="365" y="185" on="1"/>
        <pt x="365" y="188" on="1"/>
      </contour>
      <contour>
        <pt x="251" y="641" on="1"/>
        <pt x="221" y="641" on="0"/>
        <pt x="195" y="590" on="1"/>
        <pt x="168" y="609" on="1"/>
        <pt x="200" y="713" on="0"/>
        <pt x="258" y="713" on="1"/>
        <pt x="277" y="713" on="0"/>
        <pt x="334" y="679" on="0"/>
        <pt x="352" y="669" on="0"/>
        <pt x="358" y="666" on="1"/>
        <pt x="368" y="661" on="0"/>
        <pt x="379" y="661" on="1"/>
        <pt x="408" y="661" on="0"/>
        <pt x="431" y="713" on="1"/>
        <pt x="460" y="690" on="1"/>
        <pt x="446" y="642" on="0"/>
        <pt x="397" y="590" on="0"/>
        <pt x="359" y="590" on="0"/>
        <pt x="331" y="602" on="0"/>
        <pt x="305" y="618" on="1"/>
        <pt x="266" y="641" on="0"/>
      </contour>
    </TTGlyph>
    <TTGlyph name="b" xMin="91" yMin="-11" xMax="505" yMax="681">
      <contour>
        <pt x="199" y="406" on="1"/>
        <pt x="250" y="490" on="0"/>
        <pt x="339" y="490" on="1"/>
        <pt x="409" y="490" on="0"/>
        <pt x="456" y="432" on="1"/>
        <pt x="505" y="373" on="0"/>
        <pt x="505" y="276" on="1"/>
        <pt x="505" y="170" on="0"/>
        <pt x="451" y="86" on="1"/>
        <pt x="424" y="44" on="0"/>
        <pt x="342" y="-11" on="0"/>
        <pt x="293" y="-11" on="1"/>
        <pt x="194" y="-11" on="0"/>
        <pt x="164" y="84" on="1"/>
        <pt x="140" y="0" on="1"/>
        <pt x="91" y="0" on="1"/>
        <pt x="155" y="681" on="1"/>
        <pt x="226" y="681" on="1"/>
      </contour>
      <contour>
        <pt x="180" y="204" on="1"/>
        <pt x="174" y="138" on="0"/>
        <pt x="208" y="96" on="1"/>
        <pt x="238" y="59" on="0"/>
        <pt x="324" y="59" on="0"/>
        <pt x="379" y="100" on="0"/>
        <pt x="397" y="132" on="1"/>
        <pt x="432" y="193" on="0"/>
        <pt x="432" y="342" on="0"/>
        <pt x="368" y="420" on="0"/>
        <pt x="319" y="420" on="1"/>
        <pt x="270" y="420" on="0"/>
        <pt x="232" y="382" on="1"/>
        <pt x="192" y="340" on="0"/>
        <pt x="186" y="271" on="1"/>
      </contour>
    </TTGlyph>
    <TTGlyph name="backslash" xMin="95" yMin="-73" xMax="469" yMax="731">
      <contour>
        <pt x="95" y="731" on="1"/>
        <pt x="166" y="731" on="1"/>
        <pt x="469" y="-73" on="1"/>
        <pt x="397" y="-73" on="1"/>
      </contour>
    </TTGlyph>
    <TTGlyph name="bar" xMin="79" yMin="-122" xMax="232" yMax="750">
      <contour>
        <pt x="161" y="750" on="1"/>
        <pt x="232" y="750" on="1"/>
        <pt x="150" y="-122" on="1"/>
        <pt x="79" y="-122" on="1"/>
      </contour>
    </TTGlyph>
    <TTGlyph name="braceleft" xMin="93" yMin="-138" xMax="377" yMax="748">
      <contour>
        <pt x="293" y="-138" on="1"/>
        <pt x="194" y="-138" on="0"/>
        <pt x="151" y="-72" on="1"/>
        <pt x="113" y="-14" on="0"/>
        <pt x="124" y="96" on="1"/>
        <pt x="132" y="188" on="1"/>
        <pt x="141" y="267" on="0"/>
        <pt x="108" y="267" on="1"/>
        <pt x="93" y="267" on="1"/>
        <pt x="100" y="343" on="1"/>
        <pt x="115" y="343" on="1"/>
        <pt x="132" y="343" on="0"/>
        <pt x="150" y="378" on="0"/>
        <pt x="155" y="422" on="1"/>
        <pt x="163" y="513" on="1"/>
        <pt x="180" y="681" on="0"/>
        <pt x="286" y="730" on="1"/>
        <pt x="324" y="748" on="0"/>
        <pt x="377" y="748" on="1"/>
        <pt x="371" y="679" on="1"/>
        <pt x="305" y="679" on="0"/>
        <pt x="241" y="594" on="0"/>
        <pt x="233" y="512" on="1"/>
        <pt x="225" y="420" on="1"/>
        <pt x="216" y="334" on="0"/>
        <pt x="167" y="307" on="1"/>
        <pt x="166" y="303" on="1"/>
        <pt x="211" y="278" on="0"/>
        <pt x="202" y="190" on="1"/>
        <pt x="194" y="97" on="1"/>
        <pt x="186" y="16" on="0"/>
        <pt x="233" y="-69" on="0"/>
        <pt x="300" y="-69" on="1"/>
      </contour>
    </TTGlyph>
    <TTGlyph name="braceright" xMin="-5" yMin="-138" xMax="279" yMax="748">
      <contour>
        <pt x="79" y="748" on="1"/>
        <pt x="266" y="748" on="0"/>
        <pt x="248" y="514" on="1"/>
        <pt x="240" y="422" on="1"/>
        <pt x="236" y="379" on="0"/>
        <pt x="247" y="343" on="0"/>
        <pt x="264" y="343" on="1"/>
        <pt x="279" y="343" on="1"/>
        <pt x="272" y="267" on="1"/>
        <pt x="257" y="267" on="1"/>
        <pt x="240" y="267" on="0"/>
        <pt x="221" y="232" on="0"/>
        <pt x="217" y="188" on="1"/>
        <pt x="209" y="97" on="1"/>
        <pt x="192" y="-72" on="0"/>
        <pt x="86" y="-120" on="1"/>
        <pt x="47" y="-138" on="0"/>
        <pt x="-5" y="-138" on="1"/>
        <pt x="1" y="-69" on="1"/>
        <pt x="67" y="-69" on="0"/>
        <pt x="132" y="16" on="0"/>
        <pt x="139" y="98" on="1"/>
        <pt x="147" y="190" on="1"/>
        <pt x="156" y="276" on="0"/>
        <pt x="205" y="303" on="1"/>
        <pt x="206" y="307" on="1"/>
        <pt x="162" y="331" on="0"/>
        <pt x="170" y="420" on="1"/>
        <pt x="178" y="513" on="1"/>
        <pt x="186" y="594" on="0"/>
        <pt x="139" y="679" on="0"/>
        <pt x="72" y="679" on="1"/>
      </contour>
    </TTGlyph>
    <TTGlyph name="bracketleft" xMin="81" yMin="-102" xMax="337" yMax="731">
      <contour>
        <pt x="159" y="731" on="1"/>
        <pt x="337" y="731" on="1"/>
        <pt x="331" y="661" on="1"/>
        <pt x="224" y="661" on="1"/>
        <pt x="158" y="-32" on="1"/>
        <pt x="265" y="-32" on="1"/>
        <pt x="259" y="-102" on="1"/>
        <pt x="81" y="-102" on="1"/>
      </contour>
    </TTGlyph>
    <TTGlyph name="bracketright" xMin="20" yMin="-102" xMax="276" yMax="731">
      <component glyphName="bracketleft" x="357" y="629" scale="-1.0" flags="0x1004"/>
    </TTGlyph>
    <TTGlyph name="c" xMin="57" yMin="-11" xMax="445" yMax="490">
      <contour>
        <pt x="286" y="490" on="1"/>
        <pt x="324" y="490" on="0"/>
        <pt x="380" y="465" on="0"/>
        <pt x="400" y="444" on="1"/>
        <pt x="439" y="402" on="0"/>
        <pt x="445" y="338" on="1"/>
        <pt x="373" y="331" on="1"/>
        <pt x="365" y="373" on="0"/>
        <pt x="318" y="420" on="0"/>
        <pt x="256" y="420" on="0"/>
        <pt x="209" y="397" on="0"/>
        <pt x="190" y="374" on="1"/>
        <pt x="147" y="324" on="0"/>
        <pt x="140" y="240" on="1"/>
        <pt x="132" y="158" on="0"/>
        <pt x="193" y="59" on="0"/>
        <pt x="296" y="59" on="0"/>
        <pt x="352" y="112" on="0"/>
        <pt x="356" y="161" on="1"/>
        <pt x="429" y="161" on="1"/>
        <pt x="423" y="86" on="0"/>
        <pt x="370" y="38" on="1"/>
        <pt x="318" y="-11" on="0"/>
        <pt x="239" y="-11" on="1"/>
        <pt x="159" y="-11" on="0"/>
        <pt x="109" y="56" on="1"/>
        <pt x="57" y="127" on="0"/>
        <pt x="67" y="240" on="1"/>
        <pt x="79" y="355" on="0"/>
        <pt x="144" y="425" on="1"/>
        <pt x="205" y="490" on="0"/>
      </contour>
    </TTGlyph>
    <TTGlyph name="circumflex" xMin="89" yMin="677" xMax="412" yMax="872">
      <contour>
        <pt x="412" y="716" on="1"/>
        <pt x="364" y="677" on="1"/>
        <pt x="257" y="785" on="1"/>
        <pt x="130" y="677" on="1"/>
        <pt x="89" y="716" on="1"/>
        <pt x="265" y="872" on="1"/>
      </contour>
    </TTGlyph>
    <TTGlyph name="colon" xMin="55" yMin="23" xMax="194" yMax="442">
      <contour>
        <pt x="82" y="23" on="0"/>
        <pt x="55" y="56" on="0"/>
        <pt x="59" y="103" on="0"/>
        <pt x="91" y="136" on="0"/>
        <pt x="138" y="136" on="0"/>
        <pt x="165" y="103" on="0"/>
        <pt x="161" y="56" on="0"/>
        <pt x="128" y="23" on="0"/>
      </contour>
      <contour>
        <pt x="111" y="329" on="0"/>
        <pt x="84" y="362" on="0"/>
        <pt x="88" y="409" on="0"/>
        <pt x="120" y="442" on="0"/>
        <pt x="167" y="442" on="0"/>
        <pt x="194" y="409" on="0"/>
        <pt x="190" y="362" on="0"/>
        <pt x="157" y="329" on="0"/>
      </contour>
    </TTGlyph>
    <TTGlyph name="comma" xMin="19" yMin="-109" xMax="165" yMax="97">
      <contour>
        <pt x="74" y="-3" on="0"/>
        <pt x="48" y="23" on="0"/>
        <pt x="52" y="67" on="0"/>
        <pt x="84" y="97" on="0"/>
        <pt x="135" y="97" on="0"/>
        <pt x="165" y="52" on="0"/>
        <pt x="158" y="-16" on="0"/>
        <pt x="111" y="-87" on="0"/>
        <pt x="69" y="-109" on="1"/>
        <pt x="19" y="-80" on="1"/>
        <pt x="80" y="-48" on="0"/>
        <pt x="94" y="-5" on="1"/>
      </contour>
    </TTGlyph>
    <TTGlyph name="d" xMin="74" yMin="-11" xMax="507" yMax="681">
      <contour>
        <pt x="383" y="80" on="1"/>
        <pt x="332" y="-11" on="0"/>
        <pt x="244" y="-11" on="1"/>
        <pt x="169" y="-11" on="0"/>
        <pt x="122" y="48" on="1"/>
        <pt x="74" y="109" on="0"/>
        <pt x="74" y="206" on="1"/>
        <pt x="74" y="312" on="0"/>
        <pt x="128" y="394" on="1"/>
        <pt x="190" y="490" on="0"/>
        <pt x="375" y="490" on="0"/>
        <pt x="410" y="408" on="1"/>
        <pt x="436" y="681" on="1"/>
        <pt x="507" y="681" on="1"/>
        <pt x="443" y="0" on="1"/>
        <pt x="385" y="0" on="1"/>
      </contour>
      <contour>
        <pt x="285" y="420" on="1"/>
        <pt x="255" y="420" on="0"/>
        <pt x="200" y="379" on="0"/>
        <pt x="182" y="348" on="1"/>
        <pt x="148" y="288" on="0"/>
        <pt x="148" y="140" on="0"/>
        <pt x="211" y="59" on="0"/>
        <pt x="259" y="59" on="1"/>
        <pt x="305" y="59" on="0"/>
        <pt x="342" y="96" on="1"/>
        <pt x="383" y="137" on="0"/>
        <pt x="391" y="206" on="1"/>
        <pt x="398" y="276" on="1"/>
        <pt x="404" y="346" on="0"/>
        <pt x="371" y="385" on="1"/>
        <pt x="342" y="420" on="0"/>
      </contour>
    </TTGlyph>
    <TTGlyph name="dieresis" xMin="98" yMin="779" xMax="348" yMax="879">
      <contour>
        <pt x="121" y="779" on="0"/>
        <pt x="98" y="808" on="0"/>
        <pt x="102" y="850" on="0"/>
        <pt x="131" y="879" on="0"/>
        <pt x="172" y="879" on="0"/>
        <pt x="197" y="850" on="0"/>
        <pt x="193" y="808" on="0"/>
        <pt x="162" y="779" on="0"/>
      </contour>
      <contour>
        <pt x="272" y="779" on="0"/>
        <pt x="249" y="808" on="0"/>
        <pt x="253" y="850" on="0"/>
        <pt x="282" y="879" on="0"/>
        <pt x="323" y="879" on="0"/>
        <pt x="348" y="850" on="0"/>
        <pt x="344" y="808" on="0"/>
        <pt x="313" y="779" on="0"/>
      </contour>
    </TTGlyph>
    <TTGlyph name="dollar" xMin="71" yMin="-91" xMax="530" yMax="713">
      <contour>
        <pt x="406" y="330" on="1"/>
        <pt x="466" y="307" on="0"/>
        <pt x="528" y="230" on="0"/>
        <pt x="522" y="165" on="1"/>
        <pt x="516" y="97" on="0"/>
        <pt x="462" y="49" on="1"/>
        <pt x="404" y="-4" on="0"/>
        <pt x="310" y="-10" on="1"/>
        <pt x="303" y="-91" on="1"/>
        <pt x="247" y="-91" on="1"/>
        <pt x="254" y="-9" on="1"/>
        <pt x="171" y="-1" on="0"/>
        <pt x="123" y="48" on="1"/>
        <pt x="71" y="101" on="0"/>
        <pt x="79" y="189" on="1"/>
        <pt x="148" y="189" on="1"/>
        <pt x="143" y="129" on="0"/>
        <pt x="205" y="69" on="0"/>
        <pt x="261" y="63" on="1"/>
        <pt x="284" y="299" on="1"/>
        <pt x="256" y="310" on="1"/>
        <pt x="182" y="337" on="0"/>
        <pt x="150" y="372" on="1"/>
        <pt x="115" y="409" on="0"/>
        <pt x="127" y="542" on="0"/>
        <pt x="226" y="631" on="0"/>
        <pt x="316" y="638" on="1"/>
        <pt x="323" y="713" on="1"/>
        <pt x="379" y="713" on="1"/>
        <pt x="372" y="637" on="1"/>
        <pt x="449" y="630" on="0"/>
        <pt x="526" y="545" on="0"/>
        <pt x="530" y="476" on="1"/>
        <pt x="460" y="476" on="1"/>
        <pt x="452" y="554" on="0"/>
        <pt x="365" y="568" on="1"/>
        <pt x="345" y="353" on="1"/>
      </contour>
      <contour>
        <pt x="443" y="167" on="1"/>
        <pt x="449" y="241" on="0"/>
        <pt x="370" y="270" on="1"/>
        <pt x="338" y="282" on="1"/>
        <pt x="317" y="62" on="1"/>
        <pt x="375" y="67" on="0"/>
        <pt x="438" y="129" on="0"/>
      </contour>
      <contour>
        <pt x="258" y="563" on="0"/>
        <pt x="200" y="509" on="0"/>
        <pt x="194" y="436" on="0"/>
        <pt x="227" y="395" on="0"/>
        <pt x="265" y="381" on="1"/>
        <pt x="291" y="371" on="1"/>
        <pt x="309" y="568" on="1"/>
      </contour>
    </TTGlyph>
    <TTGlyph name="dotlessi" xMin="91" yMin="0" xMax="207" yMax="479">
      <contour>
        <pt x="136" y="479" on="1"/>
        <pt x="207" y="479" on="1"/>
        <pt x="162" y="0" on="1"/>
        <pt x="91" y="0" on="1"/>
      </contour>
    </TTGlyph>
    <TTGlyph name="e" xMin="55" yMin="-11" xMax="455" yMax="490">
      <contour>
        <pt x="244" y="53" on="1"/>
        <pt x="332" y="53" on="0"/>
        <pt x="354" y="140" on="1"/>
        <pt x="427" y="140" on="1"/>
        <pt x="410" y="68" on="0"/>
        <pt x="308" y="-11" on="0"/>
        <pt x="238" y="-11" on="1"/>
        <pt x="152" y="-11" on="0"/>
        <pt x="105" y="56" on="1"/>
        <pt x="55" y="126" on="0"/>
        <pt x="67" y="238" on="1"/>
        <pt x="79" y="354" on="0"/>
        <pt x="140" y="422" on="1"/>
        <pt x="200" y="490" on="0"/>
        <pt x="285" y="490" on="1"/>
        <pt x="380" y="490" on="0"/>
        <pt x="419" y="409" on="1"/>
        <pt x="455" y="336" on="0"/>
        <pt x="431" y="222" on="1"/>
        <pt x="136" y="222" on="1"/>
        <pt x="126" y="105" on="0"/>
        <pt x="192" y="66" on="1"/>
        <pt x="213" y="53" on="0"/>
      </contour>
      <contour>
        <pt x="330" y="415" on="1"/>
        <pt x="310" y="427" on="0"/>
        <pt x="252" y="427" on="0"/>
        <pt x="206" y="404" on="0"/>
        <pt x="188" y="384" on="1"/>
        <pt x="153" y="344" on="0"/>
        <pt x="143" y="282" on="1"/>
        <pt x="373" y="282" on="1"/>
        <pt x="384" y="382" on="0"/>
      </contour>
    </TTGlyph>
    <TTGlyph name="eacute" xMin="56" yMin="-11" xMax="456" yMax="736">
      <contour>
        <pt x="355" y="140" on="1"/>
        <pt x="355" y="140" on="0"/>
        <pt x="428" y="140" on="1"/>
        <pt x="411" y="68" on="0"/>
        <pt x="309" y="-11" on="0"/>
        <pt x="239" y="-11" on="1"/>
        <pt x="153" y="-11" on="0"/>
        <pt x="106" y="56" on="1"/>
        <pt x="56" y="126" on="0"/>
        <pt x="68" y="238" on="1"/>
        <pt x="80" y="354" on="0"/>
        <pt x="141" y="422" on="1"/>
        <pt x="201" y="490" on="0"/>
        <pt x="286" y="490" on="1"/>
        <pt x="381" y="490" on="0"/>
        <pt x="420" y="409" on="1"/>
        <pt x="456" y="336" on="0"/>
        <pt x="432" y="222" on="1"/>
        <pt x="137" y="222" on="1"/>
        <pt x="131" y="146" on="0"/>
        <pt x="158" y="102" on="1"/>
        <pt x="187" y="53" on="0"/>
        <pt x="245" y="53" on="1"/>
        <pt x="333" y="53" on="0"/>
      </contour>
      <contour>
        <pt x="282" y="427" on="1"/>
        <pt x="227" y="427" on="0"/>
        <pt x="190" y="384" on="1"/>
        <pt x="154" y="344" on="0"/>
        <pt x="144" y="282" on="1"/>
        <pt x="374" y="282" on="1"/>
        <pt x="381" y="343" on="0"/>
        <pt x="360" y="382" on="1"/>
        <pt x="350" y="403" on="0"/>
        <pt x="311" y="427" on="0"/>
      </contour>
      <contour>
        <pt x="415" y="666" on="1"/>
        <pt x="184" y="553" on="1"/>
        <pt x="168" y="603" on="1"/>
        <pt x="392" y="736" on="1"/>
      </contour>
    </TTGlyph>
    <TTGlyph name="ecircumflex" xMin="59" yMin="-11" xMax="459" yMax="748">
      <contour>
        <pt x="248" y="53" on="1"/>
        <pt x="336" y="53" on="0"/>
        <pt x="358" y="140" on="1"/>
        <pt x="431" y="140" on="1"/>
        <pt x="414" y="68" on="0"/>
        <pt x="312" y="-11" on="0"/>
        <pt x="242" y="-11" on="1"/>
        <pt x="156" y="-11" on="0"/>
        <pt x="109" y="56" on="1"/>
        <pt x="59" y="126" on="0"/>
        <pt x="71" y="238" on="1"/>
        <pt x="83" y="354" on="0"/>
        <pt x="144" y="422" on="1"/>
        <pt x="204" y="490" on="0"/>
        <pt x="289" y="490" on="1"/>
        <pt x="384" y="490" on="0"/>
        <pt x="423" y="409" on="1"/>
        <pt x="459" y="336" on="0"/>
        <pt x="435" y="222" on="1"/>
        <pt x="140" y="222" on="1"/>
        <pt x="130" y="105" on="0"/>
        <pt x="196" y="66" on="1"/>
        <pt x="217" y="53" on="0"/>
      </contour>
      <contour>
        <pt x="334" y="415" on="1"/>
        <pt x="314" y="427" on="0"/>
        <pt x="256" y="427" on="0"/>
        <pt x="210" y="404" on="0"/>
        <pt x="192" y="384" on="1"/>
        <pt x="157" y="344" on="0"/>
        <pt x="147" y="282" on="1"/>
        <pt x="377" y="282" on="1"/>
        <pt x="388" y="382" on="0"/>
      </contour>
      <contour>
        <pt x="452" y="592" on="1"/>
        <pt x="404" y="553" on="1"/>
        <pt x="297" y="661" on="1"/>
        <pt x="170" y="553" on="1"/>
        <pt x="129" y="592" on="1"/>
        <pt x="305" y="748" on="1"/>
      </contour>
    </TTGlyph>
    <TTGlyph name="edieresis" xMin="56" yMin="-11" xMax="456" yMax="705">
      <contour>
        <pt x="245" y="53" on="1"/>
        <pt x="333" y="53" on="0"/>
        <pt x="355" y="140" on="1"/>
        <pt x="428" y="140" on="1"/>
        <pt x="411" y="68" on="0"/>
        <pt x="309" y="-11" on="0"/>
        <pt x="239" y="-11" on="1"/>
        <pt x="153" y="-11" on="0"/>
        <pt x="106" y="56" on="1"/>
        <pt x="56" y="126" on="0"/>
        <pt x="68" y="238" on="1"/>
        <pt x="80" y="354" on="0"/>
        <pt x="141" y="422" on="1"/>
        <pt x="201" y="490" on="0"/>
        <pt x="286" y="490" on="1"/>
        <pt x="381" y="490" on="0"/>
        <pt x="420" y="409" on="1"/>
        <pt x="456" y="336" on="0"/>
        <pt x="432" y="222" on="1"/>
        <pt x="137" y="222" on="1"/>
        <pt x="127" y="105" on="0"/>
        <pt x="192" y="66" on="1"/>
        <pt x="214" y="53" on="0"/>
      </contour>
      <contour>
        <pt x="330" y="415" on="1"/>
        <pt x="311" y="427" on="0"/>
        <pt x="253" y="427" on="0"/>
        <pt x="207" y="404" on="0"/>
        <pt x="190" y="384" on="1"/>
        <pt x="154" y="344" on="0"/>
        <pt x="144" y="282" on="1"/>
        <pt x="374" y="282" on="1"/>
        <pt x="385" y="382" on="0"/>
      </contour>
      <contour>
        <pt x="193" y="605" on="0"/>
        <pt x="170" y="634" on="0"/>
        <pt x="174" y="676" on="0"/>
        <pt x="203" y="705" on="0"/>
        <pt x="244" y="705" on="0"/>
        <pt x="269" y="676" on="0"/>
        <pt x="265" y="634" on="0"/>
        <pt x="234" y="605" on="0"/>
      </contour>
      <contour>
        <pt x="344" y="605" on="0"/>
        <pt x="321" y="634" on="0"/>
        <pt x="325" y="676" on="0"/>
        <pt x="354" y="705" on="0"/>
        <pt x="395" y="705" on="0"/>
        <pt x="420" y="676" on="0"/>
        <pt x="416" y="634" on="0"/>
        <pt x="385" y="605" on="0"/>
      </contour>
    </TTGlyph>
    <TTGlyph name="egrave" xMin="56" yMin="-11" xMax="456" yMax="736">
      <contour>
        <pt x="245" y="53" on="1"/>
        <pt x="333" y="53" on="0"/>
        <pt x="355" y="140" on="1"/>
        <pt x="428" y="140" on="1"/>
        <pt x="411" y="68" on="0"/>
        <pt x="309" y="-11" on="0"/>
        <pt x="239" y="-11" on="1"/>
        <pt x="153" y="-11" on="0"/>
        <pt x="106" y="56" on="1"/>
        <pt x="56" y="126" on="0"/>
        <pt x="68" y="238" on="1"/>
        <pt x="80" y="354" on="0"/>
        <pt x="141" y="422" on="1"/>
        <pt x="201" y="490" on="0"/>
        <pt x="286" y="490" on="1"/>
        <pt x="381" y="490" on="0"/>
        <pt x="420" y="409" on="1"/>
        <pt x="456" y="336" on="0"/>
        <pt x="432" y="222" on="1"/>
        <pt x="137" y="222" on="1"/>
        <pt x="127" y="105" on="0"/>
        <pt x="192" y="66" on="1"/>
        <pt x="214" y="53" on="0"/>
      </contour>
      <contour>
        <pt x="330" y="415" on="1"/>
        <pt x="311" y="427" on="0"/>
        <pt x="253" y="427" on="0"/>
        <pt x="207" y="404" on="0"/>
        <pt x="190" y="384" on="1"/>
        <pt x="154" y="344" on="0"/>
        <pt x="144" y="282" on="1"/>
        <pt x="374" y="282" on="1"/>
        <pt x="385" y="382" on="0"/>
      </contour>
      <contour>
        <pt x="211" y="736" on="1"/>
        <pt x="410" y="603" on="1"/>
        <pt x="385" y="553" on="1"/>
        <pt x="175" y="666" on="1"/>
      </contour>
    </TTGlyph>
    <TTGlyph name="eight" xMin="57" yMin="-11" xMax="534" yMax="640">
      <contour>
        <pt x="334" y="640" on="1"/>
        <pt x="382" y="640" on="0"/>
        <pt x="455" y="613" on="0"/>
        <pt x="480" y="590" on="1"/>
        <pt x="534" y="540" on="0"/>
        <pt x="526" y="465" on="1"/>
        <pt x="522" y="412" on="0"/>
        <pt x="486" y="372" on="1"/>
        <pt x="449" y="331" on="0"/>
        <pt x="391" y="321" on="1"/>
        <pt x="406" y="315" on="1"/>
        <pt x="466" y="289" on="0"/>
        <pt x="525" y="218" on="0"/>
        <pt x="511" y="82" on="0"/>
        <pt x="383" y="-11" on="0"/>
        <pt x="274" y="-11" on="1"/>
        <pt x="176" y="-11" on="0"/>
        <pt x="116" y="40" on="1"/>
        <pt x="57" y="91" on="0"/>
        <pt x="65" y="168" on="1"/>
        <pt x="70" y="230" on="0"/>
        <pt x="150" y="308" on="0"/>
        <pt x="210" y="318" on="1"/>
        <pt x="165" y="342" on="0"/>
        <pt x="145" y="368" on="1"/>
        <pt x="107" y="418" on="0"/>
        <pt x="112" y="473" on="1"/>
        <pt x="118" y="548" on="0"/>
        <pt x="178" y="593" on="1"/>
        <pt x="240" y="640" on="0"/>
      </contour>
      <contour>
        <pt x="275" y="289" on="1"/>
        <pt x="219" y="283" on="0"/>
        <pt x="180" y="250" on="1"/>
        <pt x="143" y="218" on="0"/>
        <pt x="139" y="175" on="1"/>
        <pt x="133" y="122" on="0"/>
        <pt x="176" y="90" on="1"/>
        <pt x="215" y="61" on="0"/>
        <pt x="355" y="61" on="0"/>
        <pt x="441" y="113" on="0"/>
        <pt x="448" y="187" on="0"/>
        <pt x="408" y="232" on="0"/>
        <pt x="373" y="247" on="1"/>
      </contour>
      <contour>
        <pt x="256" y="381" on="1"/>
        <pt x="319" y="353" on="1"/>
        <pt x="373" y="355" on="0"/>
        <pt x="410" y="384" on="1"/>
        <pt x="447" y="413" on="0"/>
        <pt x="458" y="509" on="0"/>
        <pt x="389" y="568" on="0"/>
        <pt x="329" y="568" on="1"/>
        <pt x="272" y="568" on="0"/>
        <pt x="232" y="540" on="1"/>
        <pt x="191" y="510" on="0"/>
        <pt x="182" y="415" on="0"/>
      </contour>
    </TTGlyph>
    <TTGlyph name="eight.propold" xMin="57" yMin="-11" xMax="534" yMax="640">
      <contour>
        <pt x="334" y="640" on="1"/>
        <pt x="382" y="640" on="0"/>
        <pt x="455" y="613" on="0"/>
        <pt x="480" y="590" on="1"/>
        <pt x="534" y="540" on="0"/>
        <pt x="526" y="465" on="1"/>
        <pt x="522" y="412" on="0"/>
        <pt x="486" y="372" on="1"/>
        <pt x="449" y="331" on="0"/>
        <pt x="391" y="321" on="1"/>
        <pt x="406" y="315" on="1"/>
        <pt x="466" y="289" on="0"/>
        <pt x="525" y="218" on="0"/>
        <pt x="511" y="82" on="0"/>
        <pt x="383" y="-11" on="0"/>
        <pt x="274" y="-11" on="1"/>
        <pt x="176" y="-11" on="0"/>
        <pt x="116" y="40" on="1"/>
        <pt x="57" y="91" on="0"/>
        <pt x="65" y="168" on="1"/>
        <pt x="70" y="230" on="0"/>
        <pt x="150" y="308" on="0"/>
        <pt x="210" y="318" on="1"/>
        <pt x="165" y="342" on="0"/>
        <pt x="145" y="368" on="1"/>
        <pt x="107" y="418" on="0"/>
        <pt x="112" y="473" on="1"/>
        <pt x="118" y="548" on="0"/>
        <pt x="178" y="593" on="1"/>
        <pt x="240" y="640" on="0"/>
      </contour>
      <contour>
        <pt x="275" y="289" on="1"/>
        <pt x="219" y="283" on="0"/>
        <pt x="180" y="250" on="1"/>
        <pt x="143" y="218" on="0"/>
        <pt x="139" y="175" on="1"/>
        <pt x="133" y="122" on="0"/>
        <pt x="176" y="90" on="1"/>
        <pt x="215" y="61" on="0"/>
        <pt x="355" y="61" on="0"/>
        <pt x="441" y="113" on="0"/>
        <pt x="448" y="187" on="0"/>
        <pt x="408" y="232" on="0"/>
        <pt x="373" y="247" on="1"/>
      </contour>
      <contour>
        <pt x="256" y="381" on="1"/>
        <pt x="319" y="353" on="1"/>
        <pt x="373" y="355" on="0"/>
        <pt x="410" y="384" on="1"/>
        <pt x="447" y="413" on="0"/>
        <pt x="458" y="509" on="0"/>
        <pt x="389" y="568" on="0"/>
        <pt x="329" y="568" on="1"/>
        <pt x="272" y="568" on="0"/>
        <pt x="232" y="540" on="1"/>
        <pt x="191" y="510" on="0"/>
        <pt x="182" y="415" on="0"/>
      </contour>
    </TTGlyph>
    <TTGlyph name="emdash" xMin="74" yMin="257" xMax="634" yMax="325">
      <contour>
        <pt x="80" y="325" on="1"/>
        <pt x="634" y="325" on="1"/>
        <pt x="628" y="257" on="1"/>
        <pt x="74" y="257" on="1"/>
      </contour>
    </TTGlyph>
    <TTGlyph name="endash" xMin="74" yMin="257" xMax="408" yMax="325">
      <contour>
        <pt x="80" y="325" on="1"/>
        <pt x="408" y="325" on="1"/>
        <pt x="401" y="257" on="1"/>
        <pt x="74" y="257" on="1"/>
      </contour>
    </TTGlyph>
    <TTGlyph name="equal" xMin="82" yMin="117" xMax="403" yMax="377">
      <contour>
        <pt x="385" y="185" on="1"/>
        <pt x="379" y="117" on="1"/>
        <pt x="82" y="117" on="1"/>
        <pt x="88" y="185" on="1"/>
      </contour>
      <contour>
        <pt x="403" y="377" on="1"/>
        <pt x="397" y="308" on="1"/>
        <pt x="100" y="308" on="1"/>
        <pt x="106" y="377" on="1"/>
      </contour>
    </TTGlyph>
    <TTGlyph name="exclam" xMin="75" yMin="-9" xMax="222" yMax="627">
      <contour>
        <pt x="148" y="627" on="1"/>
        <pt x="222" y="627" on="1"/>
        <pt x="172" y="176" on="1"/>
        <pt x="114" y="176" on="1"/>
      </contour>
      <contour>
        <pt x="102" y="-9" on="0"/>
        <pt x="75" y="24" on="0"/>
        <pt x="80" y="71" on="0"/>
        <pt x="112" y="104" on="0"/>
        <pt x="135" y="104" on="1"/>
        <pt x="158" y="104" on="0"/>
        <pt x="187" y="71" on="0"/>
        <pt x="182" y="24" on="0"/>
        <pt x="148" y="-9" on="0"/>
        <pt x="125" y="-9" on="1"/>
      </contour>
    </TTGlyph>
    <TTGlyph name="f" xMin="84" yMin="0" xMax="376" yMax="689">
      <contour>
        <pt x="89" y="478" on="1"/>
        <pt x="159" y="478" on="1"/>
        <pt x="166" y="551" on="1"/>
        <pt x="173" y="623" on="0"/>
        <pt x="250" y="689" on="0"/>
        <pt x="340" y="689" on="0"/>
        <pt x="376" y="676" on="1"/>
        <pt x="357" y="614" on="1"/>
        <pt x="329" y="627" on="0"/>
        <pt x="294" y="627" on="0"/>
        <pt x="272" y="620" on="0"/>
        <pt x="262" y="612" on="1"/>
        <pt x="241" y="592" on="0"/>
        <pt x="237" y="550" on="1"/>
        <pt x="230" y="478" on="1"/>
        <pt x="319" y="478" on="1"/>
        <pt x="314" y="424" on="1"/>
        <pt x="225" y="424" on="1"/>
        <pt x="185" y="0" on="1"/>
        <pt x="115" y="0" on="1"/>
        <pt x="154" y="424" on="1"/>
        <pt x="84" y="424" on="1"/>
      </contour>
    </TTGlyph>
    <TTGlyph name="five" xMin="67" yMin="-11" xMax="490" yMax="629">
      <contour>
        <pt x="205" y="376" on="1"/>
        <pt x="254" y="385" on="0"/>
        <pt x="295" y="385" on="1"/>
        <pt x="388" y="385" on="0"/>
        <pt x="485" y="294" on="0"/>
        <pt x="477" y="204" on="1"/>
        <pt x="467" y="108" on="0"/>
        <pt x="408" y="50" on="1"/>
        <pt x="344" y="-11" on="0"/>
        <pt x="253" y="-11" on="1"/>
        <pt x="169" y="-11" on="0"/>
        <pt x="120" y="36" on="1"/>
        <pt x="67" y="87" on="0"/>
        <pt x="75" y="175" on="1"/>
        <pt x="146" y="175" on="1"/>
        <pt x="141" y="118" on="0"/>
        <pt x="207" y="61" on="0"/>
        <pt x="260" y="61" on="1"/>
        <pt x="319" y="61" on="0"/>
        <pt x="358" y="102" on="1"/>
        <pt x="397" y="141" on="0"/>
        <pt x="402" y="202" on="1"/>
        <pt x="413" y="323" on="0"/>
        <pt x="274" y="323" on="1"/>
        <pt x="122" y="323" on="1"/>
        <pt x="176" y="629" on="1"/>
        <pt x="490" y="629" on="1"/>
        <pt x="483" y="557" on="1"/>
        <pt x="238" y="557" on="1"/>
      </contour>
    </TTGlyph>
    <TTGlyph name="five.propold" xMin="56" yMin="-114" xMax="481" yMax="545">
      <contour>
        <pt x="196" y="296" on="1"/>
        <pt x="240" y="306" on="0"/>
        <pt x="282" y="306" on="1"/>
        <pt x="376" y="306" on="0"/>
        <pt x="474" y="200" on="0"/>
        <pt x="465" y="106" on="1"/>
        <pt x="455" y="10" on="0"/>
        <pt x="390" y="-52" on="1"/>
        <pt x="324" y="-114" on="0"/>
        <pt x="231" y="-114" on="1"/>
        <pt x="153" y="-114" on="0"/>
        <pt x="107" y="-66" on="1"/>
        <pt x="56" y="-12" on="0"/>
        <pt x="65" y="75" on="1"/>
        <pt x="134" y="75" on="1"/>
        <pt x="129" y="18" on="0"/>
        <pt x="186" y="-42" on="0"/>
        <pt x="238" y="-42" on="1"/>
        <pt x="300" y="-42" on="0"/>
        <pt x="344" y="0" on="1"/>
        <pt x="387" y="42" on="0"/>
        <pt x="398" y="169" on="0"/>
        <pt x="333" y="241" on="0"/>
        <pt x="262" y="241" on="1"/>
        <pt x="116" y="241" on="1"/>
        <pt x="170" y="545" on="1"/>
        <pt x="481" y="545" on="1"/>
        <pt x="473" y="474" on="1"/>
        <pt x="229" y="474" on="1"/>
      </contour>
    </TTGlyph>
    <TTGlyph name="four" xMin="37" yMin="0" xMax="504" yMax="638">
      <contour>
        <pt x="445" y="638" on="1"/>
        <pt x="406" y="220" on="1"/>
        <pt x="504" y="220" on="1"/>
        <pt x="497" y="152" on="1"/>
        <pt x="399" y="152" on="1"/>
        <pt x="385" y="0" on="1"/>
        <pt x="316" y="0" on="1"/>
        <pt x="329" y="152" on="1"/>
        <pt x="37" y="152" on="1"/>
        <pt x="43" y="213" on="1"/>
        <pt x="380" y="638" on="1"/>
      </contour>
      <contour>
        <pt x="128" y="213" on="1"/>
        <pt x="337" y="213" on="1"/>
        <pt x="365" y="513" on="1"/>
      </contour>
    </TTGlyph>
    <TTGlyph name="four.propold" xMin="26" yMin="-105" xMax="493" yMax="546">
      <contour>
        <pt x="436" y="546" on="1"/>
        <pt x="395" y="121" on="1"/>
        <pt x="493" y="121" on="1"/>
        <pt x="487" y="54" on="1"/>
        <pt x="389" y="54" on="1"/>
        <pt x="373" y="-105" on="1"/>
        <pt x="303" y="-105" on="1"/>
        <pt x="319" y="54" on="1"/>
        <pt x="26" y="54" on="1"/>
        <pt x="32" y="115" on="1"/>
        <pt x="369" y="546" on="1"/>
      </contour>
      <contour>
        <pt x="112" y="115" on="1"/>
        <pt x="327" y="115" on="1"/>
        <pt x="355" y="422" on="1"/>
      </contour>
    </TTGlyph>
    <TTGlyph name="g" xMin="10" yMin="-246" xMax="541" yMax="571">
      <contour>
        <pt x="407" y="454" on="1"/>
        <pt x="418" y="507" on="0"/>
        <pt x="488" y="571" on="0"/>
        <pt x="541" y="571" on="1"/>
        <pt x="526" y="493" on="1"/>
        <pt x="447" y="493" on="0"/>
        <pt x="437" y="420" on="1"/>
        <pt x="465" y="375" on="0"/>
        <pt x="455" y="277" on="0"/>
        <pt x="422" y="212" on="0"/>
        <pt x="396" y="188" on="1"/>
        <pt x="342" y="140" on="0"/>
        <pt x="267" y="140" on="1"/>
        <pt x="216" y="140" on="0"/>
        <pt x="179" y="163" on="1"/>
        <pt x="160" y="159" on="0"/>
        <pt x="129" y="130" on="0"/>
        <pt x="126" y="106" on="1"/>
        <pt x="121" y="52" on="0"/>
        <pt x="201" y="52" on="1"/>
        <pt x="368" y="52" on="1"/>
        <pt x="428" y="52" on="0"/>
        <pt x="494" y="-5" on="0"/>
        <pt x="489" y="-56" on="1"/>
        <pt x="483" y="-131" on="0"/>
        <pt x="410" y="-187" on="1"/>
        <pt x="334" y="-246" on="0"/>
        <pt x="220" y="-246" on="1"/>
        <pt x="123" y="-246" on="0"/>
        <pt x="66" y="-202" on="1"/>
        <pt x="10" y="-158" on="0"/>
        <pt x="16" y="-93" on="1"/>
        <pt x="19" y="-50" on="0"/>
        <pt x="71" y="4" on="0"/>
        <pt x="110" y="15" on="1"/>
        <pt x="85" y="29" on="0"/>
        <pt x="61" y="74" on="0"/>
        <pt x="67" y="135" on="0"/>
        <pt x="114" y="182" on="0"/>
        <pt x="146" y="190" on="1"/>
        <pt x="102" y="240" on="0"/>
        <pt x="110" y="316" on="1"/>
        <pt x="118" y="394" on="0"/>
        <pt x="172" y="442" on="1"/>
        <pt x="226" y="490" on="0"/>
        <pt x="365" y="490" on="0"/>
      </contour>
      <contour>
        <pt x="86" y="-90" on="1"/>
        <pt x="83" y="-128" on="0"/>
        <pt x="153" y="-183" on="0"/>
        <pt x="225" y="-183" on="1"/>
        <pt x="304" y="-183" on="0"/>
        <pt x="360" y="-146" on="1"/>
        <pt x="412" y="-111" on="0"/>
        <pt x="418" y="-61" on="1"/>
        <pt x="420" y="-38" on="0"/>
        <pt x="393" y="-5" on="0"/>
        <pt x="363" y="-5" on="1"/>
        <pt x="188" y="-5" on="1"/>
        <pt x="142" y="-7" on="0"/>
        <pt x="91" y="-52" on="0"/>
      </contour>
      <contour>
        <pt x="395" y="368" on="0"/>
        <pt x="345" y="433" on="0"/>
        <pt x="246" y="433" on="0"/>
        <pt x="185" y="368" on="0"/>
        <pt x="180" y="316" on="1"/>
        <pt x="175" y="264" on="0"/>
        <pt x="225" y="197" on="0"/>
        <pt x="322" y="197" on="0"/>
        <pt x="385" y="265" on="0"/>
      </contour>
    </TTGlyph>
    <TTGlyph name="grave" xMin="96" yMin="677" xMax="331" yMax="860">
      <contour>
        <pt x="132" y="860" on="1"/>
        <pt x="331" y="727" on="1"/>
        <pt x="306" y="677" on="1"/>
        <pt x="96" y="790" on="1"/>
      </contour>
    </TTGlyph>
    <TTGlyph name="greater" xMin="51" yMin="40" xMax="404" yMax="572">
      <contour>
        <pt x="142" y="572" on="1"/>
        <pt x="404" y="340" on="1"/>
        <pt x="398" y="271" on="1"/>
        <pt x="92" y="40" on="1"/>
        <pt x="51" y="101" on="1"/>
        <pt x="328" y="305" on="1"/>
        <pt x="90" y="512" on="1"/>
      </contour>
    </TTGlyph>
    <TTGlyph name="h" xMin="91" yMin="0" xMax="503" yMax="681">
      <contour>
        <pt x="198" y="390" on="1"/>
        <pt x="252" y="490" on="0"/>
        <pt x="351" y="490" on="1"/>
        <pt x="428" y="490" on="0"/>
        <pt x="503" y="378" on="0"/>
        <pt x="493" y="281" on="1"/>
        <pt x="467" y="0" on="1"/>
        <pt x="397" y="0" on="1"/>
        <pt x="423" y="281" on="1"/>
        <pt x="430" y="350" on="0"/>
        <pt x="378" y="420" on="0"/>
        <pt x="268" y="420" on="0"/>
        <pt x="191" y="317" on="0"/>
        <pt x="183" y="226" on="1"/>
        <pt x="162" y="0" on="1"/>
        <pt x="91" y="0" on="1"/>
        <pt x="155" y="681" on="1"/>
        <pt x="226" y="681" on="1"/>
      </contour>
    </TTGlyph>
    <TTGlyph name="hyphen" xMin="58" yMin="257" xMax="310" yMax="325">
      <contour>
        <pt x="65" y="325" on="1"/>
        <pt x="310" y="325" on="1"/>
        <pt x="303" y="257" on="1"/>
        <pt x="58" y="257" on="1"/>
      </contour>
    </TTGlyph>
    <TTGlyph name="i" xMin="95" yMin="0" xMax="240" yMax="690">
      <contour>
        <pt x="140" y="479" on="1"/>
        <pt x="211" y="479" on="1"/>
        <pt x="166" y="0" on="1"/>
        <pt x="95" y="0" on="1"/>
      </contour>
      <contour>
        <pt x="164" y="591" on="0"/>
        <pt x="143" y="618" on="0"/>
        <pt x="147" y="663" on="0"/>
        <pt x="173" y="690" on="0"/>
        <pt x="217" y="690" on="0"/>
        <pt x="240" y="663" on="0"/>
        <pt x="236" y="618" on="0"/>
        <pt x="208" y="591" on="0"/>
      </contour>
    </TTGlyph>
    <TTGlyph name="iacute" xMin="66" yMin="0" xMax="313" yMax="731">
      <contour>
        <pt x="95" y="0" on="1"/>
        <pt x="140" y="479" on="1"/>
        <pt x="211" y="479" on="1"/>
        <pt x="166" y="0" on="1"/>
      </contour>
      <contour>
        <pt x="313" y="661" on="1"/>
        <pt x="82" y="548" on="1"/>
        <pt x="66" y="598" on="1"/>
        <pt x="290" y="731" on="1"/>
      </contour>
    </TTGlyph>
    <TTGlyph name="icircumflex" xMin="25" yMin="0" xMax="348" yMax="743">
      <contour>
        <pt x="140" y="479" on="1"/>
        <pt x="211" y="479" on="1"/>
        <pt x="166" y="0" on="1"/>
        <pt x="95" y="0" on="1"/>
      </contour>
      <contour>
        <pt x="348" y="587" on="1"/>
        <pt x="300" y="548" on="1"/>
        <pt x="193" y="656" on="1"/>
        <pt x="66" y="548" on="1"/>
        <pt x="25" y="587" on="1"/>
        <pt x="201" y="743" on="1"/>
      </contour>
    </TTGlyph>
    <TTGlyph name="idieresis" xMin="68" yMin="0" xMax="318" yMax="705">
      <contour>
        <pt x="140" y="479" on="1"/>
        <pt x="211" y="479" on="1"/>
        <pt x="166" y="0" on="1"/>
        <pt x="95" y="0" on="1"/>
      </contour>
      <contour>
        <pt x="91" y="605" on="0"/>
        <pt x="68" y="634" on="0"/>
        <pt x="72" y="676" on="0"/>
        <pt x="101" y="705" on="0"/>
        <pt x="142" y="705" on="0"/>
        <pt x="167" y="676" on="0"/>
        <pt x="163" y="634" on="0"/>
        <pt x="132" y="605" on="0"/>
      </contour>
      <contour>
        <pt x="242" y="605" on="0"/>
        <pt x="219" y="634" on="0"/>
        <pt x="223" y="676" on="0"/>
        <pt x="252" y="705" on="0"/>
        <pt x="293" y="705" on="0"/>
        <pt x="318" y="676" on="0"/>
        <pt x="314" y="634" on="0"/>
        <pt x="283" y="605" on="0"/>
      </contour>
    </TTGlyph>
    <TTGlyph name="igrave" xMin="73" yMin="0" xMax="308" yMax="731">
      <contour>
        <pt x="140" y="479" on="1"/>
        <pt x="211" y="479" on="1"/>
        <pt x="166" y="0" on="1"/>
        <pt x="95" y="0" on="1"/>
      </contour>
      <contour>
        <pt x="109" y="731" on="1"/>
        <pt x="308" y="598" on="1"/>
        <pt x="283" y="548" on="1"/>
        <pt x="73" y="661" on="1"/>
      </contour>
    </TTGlyph>
    <TTGlyph name="j" xMin="-96" yMin="-246" xMax="254" yMax="690">
      <contour>
        <pt x="178" y="591" on="0"/>
        <pt x="156" y="618" on="0"/>
        <pt x="160" y="663" on="0"/>
        <pt x="187" y="690" on="0"/>
        <pt x="209" y="690" on="1"/>
        <pt x="231" y="690" on="0"/>
        <pt x="254" y="663" on="0"/>
        <pt x="250" y="618" on="0"/>
        <pt x="222" y="591" on="0"/>
        <pt x="200" y="591" on="1"/>
      </contour>
      <contour>
        <pt x="-86" y="-140" on="1"/>
        <pt x="-34" y="-177" on="0"/>
        <pt x="51" y="-177" on="0"/>
        <pt x="96" y="-124" on="0"/>
        <pt x="102" y="-67" on="1"/>
        <pt x="154" y="480" on="1"/>
        <pt x="225" y="480" on="1"/>
        <pt x="173" y="-67" on="1"/>
        <pt x="164" y="-163" on="0"/>
        <pt x="81" y="-246" on="0"/>
        <pt x="20" y="-246" on="1"/>
        <pt x="-36" y="-246" on="0"/>
        <pt x="-96" y="-209" on="1"/>
      </contour>
    </TTGlyph>
    <TTGlyph name="k" xMin="91" yMin="0" xMax="514" yMax="681">
      <contour>
        <pt x="243" y="253" on="1"/>
        <pt x="181" y="201" on="1"/>
        <pt x="162" y="0" on="1"/>
        <pt x="91" y="0" on="1"/>
        <pt x="155" y="681" on="1"/>
        <pt x="226" y="681" on="1"/>
        <pt x="189" y="286" on="1"/>
        <pt x="415" y="478" on="1"/>
        <pt x="514" y="478" on="1"/>
        <pt x="299" y="299" on="1"/>
        <pt x="479" y="0" on="1"/>
        <pt x="391" y="0" on="1"/>
      </contour>
    </TTGlyph>
    <TTGlyph name="l" xMin="91" yMin="0" xMax="226" yMax="681">
      <contour>
        <pt x="155" y="681" on="1"/>
        <pt x="226" y="681" on="1"/>
        <pt x="162" y="0" on="1"/>
        <pt x="91" y="0" on="1"/>
      </contour>
    </TTGlyph>
    <TTGlyph name="less" xMin="61" yMin="40" xMax="415" yMax="572">
      <contour>
        <pt x="415" y="512" on="1"/>
        <pt x="136" y="305" on="1"/>
        <pt x="376" y="101" on="1"/>
        <pt x="324" y="40" on="1"/>
        <pt x="61" y="271" on="1"/>
        <pt x="67" y="340" on="1"/>
        <pt x="374" y="572" on="1"/>
      </contour>
    </TTGlyph>
    <TTGlyph name="m" xMin="90" yMin="0" xMax="801" yMax="490">
      <contour>
        <pt x="195" y="385" on="1"/>
        <pt x="249" y="490" on="0"/>
        <pt x="350" y="490" on="1"/>
        <pt x="406" y="490" on="0"/>
        <pt x="476" y="429" on="0"/>
        <pt x="488" y="375" on="1"/>
        <pt x="539" y="490" on="0"/>
        <pt x="649" y="490" on="1"/>
        <pt x="726" y="490" on="0"/>
        <pt x="801" y="378" on="0"/>
        <pt x="791" y="281" on="1"/>
        <pt x="765" y="0" on="1"/>
        <pt x="695" y="0" on="1"/>
        <pt x="721" y="281" on="1"/>
        <pt x="728" y="350" on="0"/>
        <pt x="676" y="420" on="0"/>
        <pt x="566" y="420" on="0"/>
        <pt x="496" y="320" on="0"/>
        <pt x="488" y="232" on="1"/>
        <pt x="487" y="232" on="1"/>
        <pt x="466" y="0" on="1"/>
        <pt x="396" y="0" on="1"/>
        <pt x="422" y="281" on="1"/>
        <pt x="429" y="350" on="0"/>
        <pt x="377" y="420" on="0"/>
        <pt x="267" y="420" on="0"/>
        <pt x="190" y="317" on="0"/>
        <pt x="182" y="226" on="1"/>
        <pt x="161" y="0" on="1"/>
        <pt x="90" y="0" on="1"/>
        <pt x="135" y="478" on="1"/>
        <pt x="196" y="478" on="1"/>
      </contour>
    </TTGlyph>
    <TTGlyph name="minus" xMin="95" yMin="258" xMax="399" yMax="325">
      <contour>
        <pt x="399" y="325" on="1"/>
        <pt x="392" y="258" on="1"/>
        <pt x="95" y="258" on="1"/>
        <pt x="102" y="325" on="1"/>
      </contour>
    </TTGlyph>
    <TTGlyph name="n" xMin="90" yMin="0" xMax="502" yMax="490">
      <contour>
        <pt x="195" y="385" on="1"/>
        <pt x="249" y="490" on="0"/>
        <pt x="350" y="490" on="1"/>
        <pt x="427" y="490" on="0"/>
        <pt x="502" y="378" on="0"/>
        <pt x="492" y="281" on="1"/>
        <pt x="466" y="0" on="1"/>
        <pt x="396" y="0" on="1"/>
        <pt x="422" y="281" on="1"/>
        <pt x="429" y="350" on="0"/>
        <pt x="377" y="420" on="0"/>
        <pt x="267" y="420" on="0"/>
        <pt x="190" y="317" on="0"/>
        <pt x="182" y="226" on="1"/>
        <pt x="161" y="0" on="1"/>
        <pt x="90" y="0" on="1"/>
        <pt x="135" y="478" on="1"/>
        <pt x="196" y="478" on="1"/>
      </contour>
    </TTGlyph>
    <TTGlyph name="nine" xMin="71" yMin="-11" xMax="522" yMax="640">
      <contour>
        <pt x="314" y="640" on="1"/>
        <pt x="360" y="640" on="0"/>
        <pt x="439" y="596" on="0"/>
        <pt x="465" y="555" on="1"/>
        <pt x="522" y="466" on="0"/>
        <pt x="508" y="326" on="1"/>
        <pt x="483" y="81" on="0"/>
        <pt x="355" y="12" on="1"/>
        <pt x="311" y="-11" on="0"/>
        <pt x="212" y="-11" on="0"/>
        <pt x="143" y="18" on="0"/>
        <pt x="120" y="44" on="1"/>
        <pt x="71" y="101" on="0"/>
        <pt x="79" y="186" on="1"/>
        <pt x="154" y="186" on="1"/>
        <pt x="149" y="129" on="0"/>
        <pt x="205" y="61" on="0"/>
        <pt x="299" y="61" on="0"/>
        <pt x="359" y="100" on="0"/>
        <pt x="381" y="136" on="1"/>
        <pt x="423" y="206" on="0"/>
        <pt x="436" y="337" on="1"/>
        <pt x="440" y="375" on="0"/>
        <pt x="438" y="411" on="1"/>
        <pt x="421" y="330" on="0"/>
        <pt x="326" y="250" on="0"/>
        <pt x="262" y="250" on="1"/>
        <pt x="185" y="250" on="0"/>
        <pt x="93" y="361" on="0"/>
        <pt x="101" y="447" on="1"/>
        <pt x="109" y="534" on="0"/>
        <pt x="226" y="640" on="0"/>
      </contour>
      <contour>
        <pt x="416" y="501" on="0"/>
        <pt x="355" y="567" on="0"/>
        <pt x="254" y="567" on="0"/>
        <pt x="180" y="501" on="0"/>
        <pt x="169" y="385" on="0"/>
        <pt x="230" y="319" on="0"/>
        <pt x="282" y="319" on="1"/>
        <pt x="332" y="319" on="0"/>
        <pt x="369" y="354" on="1"/>
        <pt x="407" y="391" on="0"/>
      </contour>
    </TTGlyph>
    <TTGlyph name="nine.propold" xMin="62" yMin="-114" xMax="511" yMax="551">
      <contour>
        <pt x="308" y="551" on="1"/>
        <pt x="356" y="551" on="0"/>
        <pt x="435" y="500" on="0"/>
        <pt x="460" y="456" on="1"/>
        <pt x="511" y="368" on="0"/>
        <pt x="498" y="227" on="1"/>
        <pt x="473" y="-19" on="0"/>
        <pt x="340" y="-90" on="1"/>
        <pt x="296" y="-114" on="0"/>
        <pt x="200" y="-114" on="0"/>
        <pt x="133" y="-85" on="0"/>
        <pt x="110" y="-58" on="1"/>
        <pt x="62" y="-3" on="0"/>
        <pt x="70" y="83" on="1"/>
        <pt x="145" y="83" on="1"/>
        <pt x="140" y="26" on="0"/>
        <pt x="193" y="-42" on="0"/>
        <pt x="288" y="-42" on="0"/>
        <pt x="349" y="-3" on="0"/>
        <pt x="370" y="33" on="1"/>
        <pt x="412" y="103" on="0"/>
        <pt x="427" y="238" on="1"/>
        <pt x="428" y="258" on="0"/>
        <pt x="430" y="297" on="0"/>
        <pt x="429" y="318" on="1"/>
        <pt x="415" y="241" on="0"/>
        <pt x="322" y="156" on="0"/>
        <pt x="257" y="156" on="1"/>
        <pt x="180" y="156" on="0"/>
        <pt x="133" y="212" on="1"/>
        <pt x="85" y="269" on="0"/>
        <pt x="93" y="354" on="1"/>
        <pt x="101" y="442" on="0"/>
        <pt x="159" y="496" on="1"/>
        <pt x="218" y="551" on="0"/>
      </contour>
      <contour>
        <pt x="296" y="481" on="1"/>
        <pt x="242" y="481" on="0"/>
        <pt x="172" y="412" on="0"/>
        <pt x="161" y="295" on="0"/>
        <pt x="219" y="226" on="0"/>
        <pt x="273" y="226" on="1"/>
        <pt x="324" y="226" on="0"/>
        <pt x="362" y="264" on="1"/>
        <pt x="397" y="299" on="0"/>
        <pt x="408" y="412" on="0"/>
        <pt x="350" y="481" on="0"/>
      </contour>
    </TTGlyph>
    <TTGlyph name="ntilde" xMin="91" yMin="0" xMax="503" yMax="713">
      <contour>
        <pt x="351" y="490" on="1"/>
        <pt x="428" y="490" on="0"/>
        <pt x="503" y="378" on="0"/>
        <pt x="493" y="281" on="1"/>
        <pt x="467" y="0" on="1"/>
        <pt x="397" y="0" on="1"/>
        <pt x="423" y="281" on="1"/>
        <pt x="430" y="350" on="0"/>
        <pt x="378" y="420" on="0"/>
        <pt x="268" y="420" on="0"/>
        <pt x="191" y="317" on="0"/>
        <pt x="183" y="226" on="1"/>
        <pt x="162" y="0" on="1"/>
        <pt x="91" y="0" on="1"/>
        <pt x="136" y="478" on="1"/>
        <pt x="197" y="478" on="1"/>
        <pt x="196" y="385" on="1"/>
        <pt x="250" y="490" on="0"/>
      </contour>
      <contour>
        <pt x="273" y="641" on="1"/>
        <pt x="243" y="641" on="0"/>
        <pt x="217" y="590" on="1"/>
        <pt x="190" y="609" on="1"/>
        <pt x="222" y="713" on="0"/>
        <pt x="280" y="713" on="1"/>
        <pt x="299" y="713" on="0"/>
        <pt x="356" y="679" on="0"/>
        <pt x="374" y="669" on="0"/>
        <pt x="380" y="666" on="1"/>
        <pt x="390" y="661" on="0"/>
        <pt x="401" y="661" on="1"/>
        <pt x="430" y="661" on="0"/>
        <pt x="453" y="713" on="1"/>
        <pt x="482" y="690" on="1"/>
        <pt x="468" y="642" on="0"/>
        <pt x="419" y="590" on="0"/>
        <pt x="381" y="590" on="0"/>
        <pt x="353" y="602" on="0"/>
        <pt x="327" y="618" on="1"/>
        <pt x="288" y="641" on="0"/>
      </contour>
    </TTGlyph>
    <TTGlyph name="numbersign" xMin="63" yMin="31" xMax="570" yMax="593">
      <contour>
        <pt x="357" y="170" on="1"/>
        <pt x="219" y="170" on="1"/>
        <pt x="193" y="31" on="1"/>
        <pt x="127" y="31" on="1"/>
        <pt x="153" y="170" on="1"/>
        <pt x="63" y="170" on="1"/>
        <pt x="73" y="224" on="1"/>
        <pt x="163" y="224" on="1"/>
        <pt x="197" y="402" on="1"/>
        <pt x="106" y="402" on="1"/>
        <pt x="116" y="455" on="1"/>
        <pt x="207" y="455" on="1"/>
        <pt x="233" y="593" on="1"/>
        <pt x="300" y="593" on="1"/>
        <pt x="274" y="455" on="1"/>
        <pt x="412" y="455" on="1"/>
        <pt x="438" y="593" on="1"/>
        <pt x="504" y="593" on="1"/>
        <pt x="478" y="455" on="1"/>
        <pt x="570" y="455" on="1"/>
        <pt x="560" y="402" on="1"/>
        <pt x="468" y="402" on="1"/>
        <pt x="434" y="224" on="1"/>
        <pt x="526" y="224" on="1"/>
        <pt x="516" y="170" on="1"/>
        <pt x="424" y="170" on="1"/>
        <pt x="398" y="31" on="1"/>
        <pt x="331" y="31" on="1"/>
      </contour>
      <contour>
        <pt x="230" y="224" on="1"/>
        <pt x="368" y="224" on="1"/>
        <pt x="402" y="402" on="1"/>
        <pt x="264" y="402" on="1"/>
      </contour>
    </TTGlyph>
    <TTGlyph name="o" xMin="55" yMin="-11" xMax="481" yMax="490">
      <contour>
        <pt x="292" y="490" on="1"/>
        <pt x="335" y="490" on="0"/>
        <pt x="406" y="458" on="0"/>
        <pt x="430" y="426" on="1"/>
        <pt x="481" y="358" on="0"/>
        <pt x="469" y="239" on="1"/>
        <pt x="457" y="119" on="0"/>
        <pt x="394" y="52" on="1"/>
        <pt x="334" y="-11" on="0"/>
        <pt x="154" y="-11" on="0"/>
        <pt x="106" y="52" on="1"/>
        <pt x="55" y="119" on="0"/>
        <pt x="67" y="239" on="1"/>
        <pt x="79" y="359" on="0"/>
        <pt x="142" y="426" on="1"/>
        <pt x="201" y="490" on="0"/>
      </contour>
      <contour>
        <pt x="287" y="422" on="1"/>
        <pt x="224" y="422" on="0"/>
        <pt x="148" y="325" on="0"/>
        <pt x="132" y="154" on="0"/>
        <pt x="185" y="57" on="0"/>
        <pt x="248" y="57" on="1"/>
        <pt x="311" y="57" on="0"/>
        <pt x="389" y="154" on="0"/>
        <pt x="405" y="325" on="0"/>
        <pt x="350" y="422" on="0"/>
      </contour>
    </TTGlyph>
    <TTGlyph name="oacute" xMin="56" yMin="-11" xMax="482" yMax="731">
      <contour>
        <pt x="292" y="490" on="1"/>
        <pt x="383" y="490" on="0"/>
        <pt x="430" y="426" on="1"/>
        <pt x="482" y="358" on="0"/>
        <pt x="470" y="239" on="1"/>
        <pt x="458" y="119" on="0"/>
        <pt x="395" y="52" on="1"/>
        <pt x="335" y="-11" on="0"/>
        <pt x="155" y="-11" on="0"/>
        <pt x="107" y="52" on="1"/>
        <pt x="56" y="119" on="0"/>
        <pt x="68" y="239" on="1"/>
        <pt x="80" y="359" on="0"/>
        <pt x="142" y="426" on="1"/>
        <pt x="172" y="458" on="0"/>
        <pt x="249" y="490" on="0"/>
      </contour>
      <contour>
        <pt x="288" y="422" on="1"/>
        <pt x="225" y="422" on="0"/>
        <pt x="149" y="325" on="0"/>
        <pt x="133" y="154" on="0"/>
        <pt x="186" y="57" on="0"/>
        <pt x="249" y="57" on="1"/>
        <pt x="312" y="57" on="0"/>
        <pt x="390" y="154" on="0"/>
        <pt x="406" y="325" on="0"/>
        <pt x="351" y="422" on="0"/>
      </contour>
      <contour>
        <pt x="429" y="661" on="1"/>
        <pt x="198" y="548" on="1"/>
        <pt x="182" y="598" on="1"/>
        <pt x="406" y="731" on="1"/>
      </contour>
    </TTGlyph>
    <TTGlyph name="ocircumflex" xMin="56" yMin="-11" xMax="482" yMax="743">
      <contour>
        <pt x="292" y="490" on="1"/>
        <pt x="336" y="490" on="0"/>
        <pt x="407" y="458" on="0"/>
        <pt x="430" y="426" on="1"/>
        <pt x="482" y="358" on="0"/>
        <pt x="470" y="239" on="1"/>
        <pt x="458" y="119" on="0"/>
        <pt x="395" y="52" on="1"/>
        <pt x="335" y="-11" on="0"/>
        <pt x="155" y="-11" on="0"/>
        <pt x="107" y="52" on="1"/>
        <pt x="56" y="119" on="0"/>
        <pt x="68" y="239" on="1"/>
        <pt x="80" y="359" on="0"/>
        <pt x="142" y="426" on="1"/>
        <pt x="202" y="490" on="0"/>
      </contour>
      <contour>
        <pt x="288" y="422" on="1"/>
        <pt x="225" y="422" on="0"/>
        <pt x="149" y="325" on="0"/>
        <pt x="133" y="154" on="0"/>
        <pt x="186" y="57" on="0"/>
        <pt x="249" y="57" on="1"/>
        <pt x="312" y="57" on="0"/>
        <pt x="390" y="154" on="0"/>
        <pt x="406" y="325" on="0"/>
        <pt x="351" y="422" on="0"/>
      </contour>
      <contour>
        <pt x="462" y="587" on="1"/>
        <pt x="414" y="548" on="1"/>
        <pt x="307" y="656" on="1"/>
        <pt x="180" y="548" on="1"/>
        <pt x="139" y="587" on="1"/>
        <pt x="315" y="743" on="1"/>
      </contour>
    </TTGlyph>
    <TTGlyph name="odieresis" xMin="56" yMin="-11" xMax="482" yMax="705">
      <contour>
        <pt x="292" y="490" on="1"/>
        <pt x="336" y="490" on="0"/>
        <pt x="407" y="458" on="0"/>
        <pt x="430" y="426" on="1"/>
        <pt x="482" y="358" on="0"/>
        <pt x="470" y="239" on="1"/>
        <pt x="458" y="119" on="0"/>
        <pt x="395" y="52" on="1"/>
        <pt x="335" y="-11" on="0"/>
        <pt x="155" y="-11" on="0"/>
        <pt x="107" y="52" on="1"/>
        <pt x="56" y="119" on="0"/>
        <pt x="68" y="239" on="1"/>
        <pt x="80" y="359" on="0"/>
        <pt x="142" y="426" on="1"/>
        <pt x="202" y="490" on="0"/>
      </contour>
      <contour>
        <pt x="288" y="422" on="1"/>
        <pt x="225" y="422" on="0"/>
        <pt x="149" y="325" on="0"/>
        <pt x="133" y="154" on="0"/>
        <pt x="186" y="57" on="0"/>
        <pt x="249" y="57" on="1"/>
        <pt x="312" y="57" on="0"/>
        <pt x="390" y="154" on="0"/>
        <pt x="406" y="325" on="0"/>
        <pt x="351" y="422" on="0"/>
      </contour>
      <contour>
        <pt x="206" y="605" on="0"/>
        <pt x="183" y="634" on="0"/>
        <pt x="187" y="676" on="0"/>
        <pt x="216" y="705" on="0"/>
        <pt x="257" y="705" on="0"/>
        <pt x="282" y="676" on="0"/>
        <pt x="278" y="634" on="0"/>
        <pt x="247" y="605" on="0"/>
      </contour>
      <contour>
        <pt x="357" y="605" on="0"/>
        <pt x="334" y="634" on="0"/>
        <pt x="338" y="676" on="0"/>
        <pt x="367" y="705" on="0"/>
        <pt x="408" y="705" on="0"/>
        <pt x="433" y="676" on="0"/>
        <pt x="429" y="634" on="0"/>
        <pt x="398" y="605" on="0"/>
      </contour>
    </TTGlyph>
    <TTGlyph name="ograve" xMin="56" yMin="-11" xMax="482" yMax="731">
      <contour>
        <pt x="292" y="490" on="1"/>
        <pt x="336" y="490" on="0"/>
        <pt x="407" y="458" on="0"/>
        <pt x="430" y="426" on="1"/>
        <pt x="482" y="358" on="0"/>
        <pt x="470" y="239" on="1"/>
        <pt x="458" y="119" on="0"/>
        <pt x="395" y="52" on="1"/>
        <pt x="335" y="-11" on="0"/>
        <pt x="155" y="-11" on="0"/>
        <pt x="107" y="52" on="1"/>
        <pt x="56" y="119" on="0"/>
        <pt x="68" y="239" on="1"/>
        <pt x="80" y="359" on="0"/>
        <pt x="142" y="426" on="1"/>
        <pt x="202" y="490" on="0"/>
      </contour>
      <contour>
        <pt x="288" y="422" on="1"/>
        <pt x="225" y="422" on="0"/>
        <pt x="149" y="325" on="0"/>
        <pt x="133" y="154" on="0"/>
        <pt x="186" y="57" on="0"/>
        <pt x="249" y="57" on="1"/>
        <pt x="312" y="57" on="0"/>
        <pt x="390" y="154" on="0"/>
        <pt x="406" y="325" on="0"/>
        <pt x="351" y="422" on="0"/>
      </contour>
      <contour>
        <pt x="225" y="731" on="1"/>
        <pt x="424" y="598" on="1"/>
        <pt x="399" y="548" on="1"/>
        <pt x="189" y="661" on="1"/>
      </contour>
    </TTGlyph>
    <TTGlyph name="one" xMin="91" yMin="0" xMax="266" yMax="631">
      <contour>
        <pt x="266" y="631" on="1"/>
        <pt x="207" y="0" on="1"/>
        <pt x="137" y="0" on="1"/>
        <pt x="187" y="537" on="1"/>
        <pt x="143" y="507" on="0"/>
        <pt x="91" y="502" on="1"/>
        <pt x="98" y="580" on="1"/>
        <pt x="161" y="589" on="0"/>
        <pt x="209" y="631" on="1"/>
      </contour>
    </TTGlyph>
    <TTGlyph name="one.propold" xMin="83" yMin="0" xMax="257" yMax="541">
      <contour>
        <pt x="257" y="541" on="1"/>
        <pt x="207" y="0" on="1"/>
        <pt x="137" y="0" on="1"/>
        <pt x="178" y="446" on="1"/>
        <pt x="130" y="414" on="0"/>
        <pt x="83" y="412" on="1"/>
        <pt x="90" y="489" on="1"/>
        <pt x="154" y="500" on="0"/>
        <pt x="200" y="541" on="1"/>
      </contour>
    </TTGlyph>
    <TTGlyph name="otilde" xMin="56" yMin="-11" xMax="482" yMax="713">
      <contour>
        <pt x="292" y="490" on="1"/>
        <pt x="383" y="490" on="0"/>
        <pt x="430" y="426" on="1"/>
        <pt x="482" y="358" on="0"/>
        <pt x="470" y="239" on="1"/>
        <pt x="458" y="119" on="0"/>
        <pt x="395" y="52" on="1"/>
        <pt x="335" y="-11" on="0"/>
        <pt x="155" y="-11" on="0"/>
        <pt x="107" y="52" on="1"/>
        <pt x="56" y="119" on="0"/>
        <pt x="68" y="239" on="1"/>
        <pt x="80" y="359" on="0"/>
        <pt x="142" y="426" on="1"/>
        <pt x="172" y="458" on="0"/>
        <pt x="249" y="490" on="0"/>
      </contour>
      <contour>
        <pt x="288" y="422" on="1"/>
        <pt x="225" y="422" on="0"/>
        <pt x="149" y="325" on="0"/>
        <pt x="133" y="154" on="0"/>
        <pt x="186" y="57" on="0"/>
        <pt x="249" y="57" on="1"/>
        <pt x="312" y="57" on="0"/>
        <pt x="390" y="154" on="0"/>
        <pt x="406" y="325" on="0"/>
        <pt x="351" y="422" on="0"/>
      </contour>
      <contour>
        <pt x="245" y="641" on="1"/>
        <pt x="215" y="641" on="0"/>
        <pt x="189" y="590" on="1"/>
        <pt x="162" y="609" on="1"/>
        <pt x="194" y="713" on="0"/>
        <pt x="252" y="713" on="1"/>
        <pt x="271" y="713" on="0"/>
        <pt x="328" y="679" on="0"/>
        <pt x="346" y="669" on="0"/>
        <pt x="352" y="666" on="1"/>
        <pt x="362" y="661" on="0"/>
        <pt x="373" y="661" on="1"/>
        <pt x="402" y="661" on="0"/>
        <pt x="425" y="713" on="1"/>
        <pt x="454" y="690" on="1"/>
        <pt x="440" y="642" on="0"/>
        <pt x="391" y="590" on="0"/>
        <pt x="353" y="590" on="0"/>
        <pt x="325" y="602" on="0"/>
        <pt x="299" y="618" on="1"/>
        <pt x="260" y="641" on="0"/>
      </contour>
    </TTGlyph>
    <TTGlyph name="p" xMin="68" yMin="-235" xMax="513" yMax="490">
      <contour>
        <pt x="195" y="405" on="1"/>
        <pt x="248" y="490" on="0"/>
        <pt x="335" y="490" on="1"/>
        <pt x="413" y="490" on="0"/>
        <pt x="462" y="424" on="1"/>
        <pt x="513" y="353" on="0"/>
        <pt x="503" y="240" on="1"/>
        <pt x="491" y="126" on="0"/>
        <pt x="426" y="56" on="1"/>
        <pt x="365" y="-11" on="0"/>
        <pt x="201" y="-11" on="0"/>
        <pt x="167" y="58" on="1"/>
        <pt x="139" y="-235" on="1"/>
        <pt x="68" y="-235" on="1"/>
        <pt x="136" y="478" on="1"/>
        <pt x="194" y="478" on="1"/>
      </contour>
      <contour>
        <pt x="180" y="194" on="1"/>
        <pt x="174" y="132" on="0"/>
        <pt x="206" y="94" on="1"/>
        <pt x="235" y="59" on="0"/>
        <pt x="283" y="59" on="1"/>
        <pt x="336" y="59" on="0"/>
        <pt x="376" y="105" on="1"/>
        <pt x="420" y="154" on="0"/>
        <pt x="438" y="325" on="0"/>
        <pt x="373" y="420" on="0"/>
        <pt x="319" y="420" on="1"/>
        <pt x="269" y="420" on="0"/>
        <pt x="233" y="384" on="1"/>
        <pt x="194" y="345" on="0"/>
        <pt x="188" y="278" on="1"/>
        <pt x="187" y="278" on="1"/>
        <pt x="179" y="194" on="1"/>
      </contour>
    </TTGlyph>
    <TTGlyph name="parenleft" xMin="83" yMin="-113" xMax="360" yMax="728">
      <contour>
        <pt x="360" y="687" on="1"/>
        <pt x="188" y="511" on="0"/>
        <pt x="168" y="307" on="1"/>
        <pt x="150" y="101" on="0"/>
        <pt x="288" y="-73" on="1"/>
        <pt x="233" y="-113" on="1"/>
        <pt x="153" y="-24" on="0"/>
        <pt x="83" y="192" on="0"/>
        <pt x="105" y="423" on="0"/>
        <pt x="215" y="638" on="0"/>
        <pt x="312" y="728" on="1"/>
      </contour>
    </TTGlyph>
    <TTGlyph name="parenright" xMin="18" yMin="-113" xMax="306" yMax="728">
      <contour>
        <pt x="145" y="728" on="1"/>
        <pt x="306" y="547" on="0"/>
        <pt x="283" y="307" on="1"/>
        <pt x="272" y="192" on="0"/>
        <pt x="162" y="-24" on="0"/>
        <pt x="66" y="-113" on="1"/>
        <pt x="18" y="-73" on="1"/>
        <pt x="190" y="103" on="0"/>
        <pt x="210" y="307" on="1"/>
        <pt x="228" y="513" on="0"/>
        <pt x="90" y="687" on="1"/>
      </contour>
    </TTGlyph>
    <TTGlyph name="percent" xMin="96" yMin="-11" xMax="618" yMax="640">
      <contour>
        <pt x="338" y="563" on="0"/>
        <pt x="325" y="425" on="0"/>
        <pt x="249" y="353" on="0"/>
        <pt x="203" y="353" on="1"/>
        <pt x="154" y="353" on="0"/>
        <pt x="126" y="389" on="1"/>
        <pt x="96" y="427" on="0"/>
        <pt x="109" y="567" on="0"/>
        <pt x="184" y="640" on="0"/>
        <pt x="278" y="640" on="0"/>
      </contour>
      <contour>
        <pt x="279" y="543" on="0"/>
        <pt x="250" y="587" on="0"/>
        <pt x="198" y="587" on="0"/>
        <pt x="162" y="543" on="0"/>
        <pt x="157" y="496" on="1"/>
        <pt x="152" y="449" on="0"/>
        <pt x="181" y="407" on="0"/>
        <pt x="233" y="407" on="0"/>
        <pt x="269" y="449" on="0"/>
        <pt x="274" y="496" on="1"/>
      </contour>
      <contour>
        <pt x="540" y="629" on="1"/>
        <pt x="614" y="629" on="1"/>
        <pt x="174" y="0" on="1"/>
        <pt x="101" y="0" on="1"/>
      </contour>
      <contour>
        <pt x="510" y="276" on="1"/>
        <pt x="559" y="276" on="0"/>
        <pt x="587" y="240" on="1"/>
        <pt x="618" y="201" on="0"/>
        <pt x="612" y="132" on="1"/>
        <pt x="606" y="64" on="0"/>
        <pt x="567" y="25" on="1"/>
        <pt x="531" y="-11" on="0"/>
        <pt x="482" y="-11" on="1"/>
        <pt x="434" y="-11" on="0"/>
        <pt x="406" y="25" on="1"/>
        <pt x="376" y="63" on="0"/>
        <pt x="382" y="132" on="1"/>
        <pt x="388" y="200" on="0"/>
        <pt x="426" y="240" on="1"/>
        <pt x="462" y="276" on="0"/>
      </contour>
      <contour>
        <pt x="505" y="223" on="1"/>
        <pt x="479" y="223" on="0"/>
        <pt x="442" y="179" on="0"/>
        <pt x="433" y="85" on="0"/>
        <pt x="462" y="43" on="0"/>
        <pt x="488" y="43" on="1"/>
        <pt x="514" y="43" on="0"/>
        <pt x="550" y="85" on="0"/>
        <pt x="554" y="132" on="1"/>
        <pt x="559" y="179" on="0"/>
        <pt x="531" y="223" on="0"/>
      </contour>
    </TTGlyph>
    <TTGlyph name="period" xMin="29" yMin="-9" xMax="139" yMax="104">
      <contour>
        <pt x="56" y="-9" on="0"/>
        <pt x="29" y="24" on="0"/>
        <pt x="33" y="71" on="0"/>
        <pt x="65" y="104" on="0"/>
        <pt x="112" y="104" on="0"/>
        <pt x="139" y="71" on="0"/>
        <pt x="135" y="24" on="0"/>
        <pt x="102" y="-9" on="0"/>
      </contour>
    </TTGlyph>
    <TTGlyph name="plus" xMin="36" yMin="0" xMax="484" yMax="491">
      <contour>
        <pt x="319" y="491" on="1"/>
        <pt x="299" y="279" on="1"/>
        <pt x="484" y="279" on="1"/>
        <pt x="478" y="212" on="1"/>
        <pt x="292" y="212" on="1"/>
        <pt x="273" y="0" on="1"/>
        <pt x="202" y="0" on="1"/>
        <pt x="221" y="212" on="1"/>
        <pt x="36" y="212" on="1"/>
        <pt x="42" y="279" on="1"/>
        <pt x="228" y="279" on="1"/>
        <pt x="247" y="491" on="1"/>
      </contour>
    </TTGlyph>
    <TTGlyph name="q" xMin="56" yMin="-246" xMax="482" yMax="490">
      <contour>
        <pt x="371" y="77" on="1"/>
        <pt x="327" y="-11" on="0"/>
        <pt x="238" y="-11" on="1"/>
        <pt x="158" y="-11" on="0"/>
        <pt x="109" y="56" on="1"/>
        <pt x="56" y="127" on="0"/>
        <pt x="68" y="240" on="1"/>
        <pt x="80" y="354" on="0"/>
        <pt x="144" y="424" on="1"/>
        <pt x="205" y="490" on="0"/>
        <pt x="283" y="490" on="1"/>
        <pt x="327" y="490" on="0"/>
        <pt x="392" y="444" on="0"/>
        <pt x="408" y="399" on="1"/>
        <pt x="431" y="478" on="1"/>
        <pt x="480" y="478" on="1"/>
        <pt x="427" y="-81" on="1"/>
        <pt x="421" y="-130" on="0"/>
        <pt x="440" y="-163" on="0"/>
        <pt x="464" y="-178" on="0"/>
        <pt x="482" y="-185" on="1"/>
        <pt x="454" y="-246" on="1"/>
        <pt x="393" y="-228" on="0"/>
        <pt x="371" y="-188" on="1"/>
        <pt x="349" y="-148" on="0"/>
        <pt x="357" y="-76" on="1"/>
      </contour>
      <contour>
        <pt x="284" y="420" on="1"/>
        <pt x="260" y="420" on="0"/>
        <pt x="211" y="396" on="0"/>
        <pt x="192" y="372" on="1"/>
        <pt x="149" y="321" on="0"/>
        <pt x="141" y="240" on="1"/>
        <pt x="134" y="157" on="0"/>
        <pt x="168" y="105" on="1"/>
        <pt x="200" y="59" on="0"/>
        <pt x="253" y="59" on="1"/>
        <pt x="302" y="59" on="0"/>
        <pt x="337" y="94" on="1"/>
        <pt x="376" y="132" on="0"/>
        <pt x="382" y="194" on="1"/>
        <pt x="392" y="293" on="1"/>
        <pt x="392" y="353" on="0"/>
        <pt x="360" y="388" on="1"/>
        <pt x="332" y="420" on="0"/>
      </contour>
    </TTGlyph>
    <TTGlyph name="question" xMin="72" yMin="-11" xMax="458" yMax="640">
      <contour>
        <pt x="276" y="568" on="1"/>
        <pt x="171" y="568" on="0"/>
        <pt x="148" y="476" on="1"/>
        <pt x="72" y="476" on="1"/>
        <pt x="85" y="550" on="0"/>
        <pt x="191" y="640" on="0"/>
        <pt x="282" y="640" on="1"/>
        <pt x="367" y="640" on="0"/>
        <pt x="414" y="592" on="1"/>
        <pt x="458" y="545" on="0"/>
        <pt x="452" y="475" on="1"/>
        <pt x="447" y="423" on="0"/>
        <pt x="393" y="353" on="0"/>
        <pt x="338" y="322" on="1"/>
        <pt x="287" y="292" on="0"/>
        <pt x="274" y="276" on="1"/>
        <pt x="252" y="247" on="0"/>
        <pt x="248" y="200" on="1"/>
        <pt x="244" y="161" on="1"/>
        <pt x="174" y="161" on="1"/>
        <pt x="178" y="206" on="1"/>
        <pt x="184" y="271" on="0"/>
        <pt x="206" y="303" on="1"/>
        <pt x="230" y="336" on="0"/>
        <pt x="283" y="366" on="1"/>
        <pt x="331" y="394" on="0"/>
        <pt x="347" y="412" on="1"/>
        <pt x="371" y="439" on="0"/>
        <pt x="379" y="517" on="0"/>
        <pt x="327" y="568" on="0"/>
      </contour>
      <contour>
        <pt x="204" y="102" on="1"/>
        <pt x="227" y="102" on="0"/>
        <pt x="255" y="68" on="0"/>
        <pt x="251" y="21" on="0"/>
        <pt x="216" y="-11" on="0"/>
        <pt x="193" y="-11" on="1"/>
        <pt x="170" y="-11" on="0"/>
        <pt x="145" y="21" on="0"/>
        <pt x="149" y="68" on="0"/>
        <pt x="181" y="102" on="0"/>
      </contour>
    </TTGlyph>
    <TTGlyph name="quotedbl" xMin="78" yMin="461" xMax="314" yMax="681">
      <contour>
        <pt x="163" y="681" on="1"/>
        <pt x="132" y="461" on="1"/>
        <pt x="78" y="461" on="1"/>
        <pt x="89" y="681" on="1"/>
      </contour>
      <contour>
        <pt x="314" y="681" on="1"/>
        <pt x="283" y="461" on="1"/>
        <pt x="229" y="461" on="1"/>
        <pt x="240" y="681" on="1"/>
      </contour>
    </TTGlyph>
    <TTGlyph name="quoteleft" xMin="76" yMin="418" xMax="221" yMax="626">
      <contour>
        <pt x="188" y="449" on="0"/>
        <pt x="156" y="418" on="0"/>
        <pt x="106" y="418" on="0"/>
        <pt x="76" y="464" on="0"/>
        <pt x="83" y="533" on="0"/>
        <pt x="132" y="604" on="0"/>
        <pt x="174" y="626" on="1"/>
        <pt x="221" y="597" on="1"/>
        <pt x="161" y="564" on="0"/>
        <pt x="147" y="521" on="1"/>
        <pt x="167" y="519" on="0"/>
        <pt x="192" y="493" on="0"/>
        <pt x="190" y="471" on="1"/>
      </contour>
    </TTGlyph>
    <TTGlyph name="quoteright" xMin="56" yMin="418" xMax="201" yMax="626">
      <contour>
        <pt x="88" y="596" on="0"/>
        <pt x="120" y="626" on="0"/>
        <pt x="171" y="626" on="0"/>
        <pt x="201" y="582" on="0"/>
        <pt x="194" y="512" on="0"/>
        <pt x="145" y="441" on="0"/>
        <pt x="103" y="418" on="1"/>
        <pt x="56" y="448" on="1"/>
        <pt x="116" y="481" on="0"/>
        <pt x="130" y="524" on="1"/>
        <pt x="110" y="526" on="0"/>
        <pt x="84" y="552" on="0"/>
        <pt x="86" y="574" on="1"/>
      </contour>
    </TTGlyph>
    <TTGlyph name="quotesingle" xMin="77" yMin="457" xMax="162" yMax="677">
      <contour>
        <pt x="162" y="677" on="1"/>
        <pt x="131" y="457" on="1"/>
        <pt x="77" y="457" on="1"/>
        <pt x="88" y="677" on="1"/>
      </contour>
    </TTGlyph>
    <TTGlyph name="r" xMin="90" yMin="0" xMax="370" yMax="487">
      <contour>
        <pt x="359" y="401" on="1"/>
        <pt x="331" y="411" on="0"/>
        <pt x="305" y="411" on="1"/>
        <pt x="248" y="411" on="0"/>
        <pt x="190" y="306" on="0"/>
        <pt x="181" y="216" on="1"/>
        <pt x="159" y="216" on="1"/>
        <pt x="169" y="324" on="0"/>
        <pt x="197" y="388" on="1"/>
        <pt x="161" y="0" on="1"/>
        <pt x="90" y="0" on="1"/>
        <pt x="135" y="479" on="1"/>
        <pt x="206" y="479" on="1"/>
        <pt x="197" y="388" on="1"/>
        <pt x="240" y="487" on="0"/>
        <pt x="321" y="487" on="1"/>
        <pt x="347" y="487" on="0"/>
        <pt x="370" y="478" on="1"/>
      </contour>
    </TTGlyph>
    <TTGlyph name="rupeesymbol" xMin="106" yMin="0" xMax="517" yMax="629">
      <contour>
        <pt x="142" y="629" on="1"/>
        <pt x="517" y="629" on="1"/>
        <pt x="511" y="580" on="1"/>
        <pt x="347" y="580" on="1"/>
        <pt x="405" y="544" on="0"/>
        <pt x="413" y="477" on="1"/>
        <pt x="502" y="477" on="1"/>
        <pt x="498" y="429" on="1"/>
        <pt x="412" y="429" on="1"/>
        <pt x="396" y="314" on="0"/>
        <pt x="291" y="270" on="1"/>
        <pt x="254" y="255" on="0"/>
        <pt x="204" y="250" on="1"/>
        <pt x="427" y="0" on="1"/>
        <pt x="326" y="0" on="1"/>
        <pt x="106" y="248" on="1"/>
        <pt x="111" y="296" on="1"/>
        <pt x="166" y="296" on="1"/>
        <pt x="243" y="296" on="0"/>
        <pt x="326" y="372" on="0"/>
        <pt x="335" y="429" on="1"/>
        <pt x="123" y="429" on="1"/>
        <pt x="128" y="477" on="1"/>
        <pt x="336" y="477" on="1"/>
        <pt x="330" y="523" on="0"/>
        <pt x="261" y="580" on="0"/>
        <pt x="192" y="580" on="1"/>
        <pt x="137" y="580" on="1"/>
      </contour>
    </TTGlyph>
    <TTGlyph name="s" xMin="63" yMin="-11" xMax="440" yMax="490">
      <contour>
        <pt x="108" y="420" on="0"/>
        <pt x="206" y="490" on="0"/>
        <pt x="360" y="490" on="0"/>
        <pt x="440" y="418" on="0"/>
        <pt x="437" y="363" on="1"/>
        <pt x="368" y="363" on="1"/>
        <pt x="365" y="428" on="0"/>
        <pt x="274" y="428" on="1"/>
        <pt x="230" y="428" on="0"/>
        <pt x="179" y="384" on="0"/>
        <pt x="174" y="333" on="0"/>
        <pt x="207" y="298" on="0"/>
        <pt x="245" y="285" on="1"/>
        <pt x="328" y="253" on="1"/>
        <pt x="382" y="234" on="0"/>
        <pt x="435" y="175" on="0"/>
        <pt x="430" y="128" on="1"/>
        <pt x="424" y="71" on="0"/>
        <pt x="374" y="32" on="1"/>
        <pt x="320" y="-11" on="0"/>
        <pt x="151" y="-11" on="0"/>
        <pt x="63" y="74" on="0"/>
        <pt x="67" y="141" on="1"/>
        <pt x="135" y="141" on="1"/>
        <pt x="133" y="96" on="0"/>
        <pt x="191" y="51" on="0"/>
        <pt x="286" y="51" on="0"/>
        <pt x="349" y="95" on="0"/>
        <pt x="355" y="156" on="0"/>
        <pt x="322" y="188" on="0"/>
        <pt x="283" y="200" on="1"/>
        <pt x="202" y="231" on="1"/>
        <pt x="93" y="267" on="0"/>
        <pt x="102" y="361" on="1"/>
      </contour>
    </TTGlyph>
    <TTGlyph name="semicolon" xMin="43" yMin="-109" xMax="217" yMax="442">
      <contour>
        <pt x="98" y="-3" on="0"/>
        <pt x="72" y="23" on="0"/>
        <pt x="76" y="67" on="0"/>
        <pt x="108" y="97" on="0"/>
        <pt x="159" y="97" on="0"/>
        <pt x="189" y="52" on="0"/>
        <pt x="182" y="-16" on="0"/>
        <pt x="135" y="-87" on="0"/>
        <pt x="93" y="-109" on="1"/>
        <pt x="43" y="-80" on="1"/>
        <pt x="104" y="-48" on="0"/>
        <pt x="118" y="-5" on="1"/>
      </contour>
      <contour>
        <pt x="134" y="329" on="0"/>
        <pt x="107" y="362" on="0"/>
        <pt x="111" y="409" on="0"/>
        <pt x="143" y="442" on="0"/>
        <pt x="190" y="442" on="0"/>
        <pt x="217" y="409" on="0"/>
        <pt x="213" y="362" on="0"/>
        <pt x="180" y="329" on="0"/>
      </contour>
    </TTGlyph>
    <TTGlyph name="seven" xMin="52" yMin="0" xMax="466" yMax="629">
      <contour>
        <pt x="466" y="629" on="1"/>
        <pt x="459" y="556" on="1"/>
        <pt x="148" y="0" on="1"/>
        <pt x="52" y="0" on="1"/>
        <pt x="376" y="553" on="1"/>
        <pt x="74" y="553" on="1"/>
        <pt x="81" y="629" on="1"/>
      </contour>
    </TTGlyph>
    <TTGlyph name="seven.propold" xMin="40" yMin="-98" xMax="458" yMax="551">
      <contour>
        <pt x="458" y="551" on="1"/>
        <pt x="452" y="484" on="1"/>
        <pt x="127" y="-98" on="1"/>
        <pt x="40" y="-98" on="1"/>
        <pt x="377" y="481" on="1"/>
        <pt x="67" y="481" on="1"/>
        <pt x="73" y="551" on="1"/>
      </contour>
    </TTGlyph>
    <TTGlyph name="six" xMin="62" yMin="-12" xMax="504" yMax="640">
      <contour>
        <pt x="427" y="470" on="1"/>
        <pt x="420" y="568" on="0"/>
        <pt x="336" y="568" on="1"/>
        <pt x="258" y="568" on="0"/>
        <pt x="208" y="494" on="1"/>
        <pt x="152" y="412" on="0"/>
        <pt x="142" y="248" on="1"/>
        <pt x="140" y="225" on="0"/>
        <pt x="141" y="204" on="1"/>
        <pt x="163" y="339" on="0"/>
        <pt x="260" y="370" on="1"/>
        <pt x="289" y="379" on="0"/>
        <pt x="357" y="379" on="0"/>
        <pt x="420" y="350" on="0"/>
        <pt x="442" y="324" on="1"/>
        <pt x="489" y="267" on="0"/>
        <pt x="481" y="182" on="1"/>
        <pt x="471" y="95" on="0"/>
        <pt x="356" y="-12" on="0"/>
        <pt x="269" y="-12" on="1"/>
        <pt x="169" y="-12" on="0"/>
        <pt x="114" y="78" on="1"/>
        <pt x="62" y="166" on="0"/>
        <pt x="74" y="303" on="1"/>
        <pt x="88" y="459" on="0"/>
        <pt x="160" y="550" on="1"/>
        <pt x="231" y="640" on="0"/>
        <pt x="341" y="640" on="1"/>
        <pt x="418" y="640" on="0"/>
        <pt x="504" y="546" on="0"/>
        <pt x="503" y="470" on="1"/>
      </contour>
      <contour>
        <pt x="174" y="237" on="0"/>
        <pt x="165" y="127" on="0"/>
        <pt x="226" y="61" on="0"/>
        <pt x="328" y="61" on="0"/>
        <pt x="402" y="127" on="0"/>
        <pt x="407" y="185" on="1"/>
        <pt x="412" y="243" on="0"/>
        <pt x="351" y="309" on="0"/>
        <pt x="250" y="309" on="0"/>
      </contour>
    </TTGlyph>
    <TTGlyph name="six.propold" xMin="62" yMin="-12" xMax="504" yMax="640">
      <contour>
        <pt x="427" y="470" on="1"/>
        <pt x="420" y="568" on="0"/>
        <pt x="336" y="568" on="1"/>
        <pt x="258" y="568" on="0"/>
        <pt x="208" y="494" on="1"/>
        <pt x="152" y="412" on="0"/>
        <pt x="142" y="248" on="1"/>
        <pt x="140" y="225" on="0"/>
        <pt x="141" y="204" on="1"/>
        <pt x="163" y="339" on="0"/>
        <pt x="260" y="370" on="1"/>
        <pt x="289" y="379" on="0"/>
        <pt x="357" y="379" on="0"/>
        <pt x="420" y="350" on="0"/>
        <pt x="442" y="324" on="1"/>
        <pt x="489" y="267" on="0"/>
        <pt x="481" y="182" on="1"/>
        <pt x="471" y="95" on="0"/>
        <pt x="356" y="-12" on="0"/>
        <pt x="269" y="-12" on="1"/>
        <pt x="169" y="-12" on="0"/>
        <pt x="114" y="78" on="1"/>
        <pt x="62" y="166" on="0"/>
        <pt x="74" y="303" on="1"/>
        <pt x="88" y="459" on="0"/>
        <pt x="160" y="550" on="1"/>
        <pt x="231" y="640" on="0"/>
        <pt x="341" y="640" on="1"/>
        <pt x="418" y="640" on="0"/>
        <pt x="504" y="546" on="0"/>
        <pt x="503" y="470" on="1"/>
      </contour>
      <contour>
        <pt x="174" y="237" on="0"/>
        <pt x="165" y="127" on="0"/>
        <pt x="226" y="61" on="0"/>
        <pt x="328" y="61" on="0"/>
        <pt x="402" y="127" on="0"/>
        <pt x="407" y="185" on="1"/>
        <pt x="412" y="243" on="0"/>
        <pt x="351" y="309" on="0"/>
        <pt x="250" y="309" on="0"/>
      </contour>
    </TTGlyph>
    <TTGlyph name="slash" xMin="44" yMin="-73" xMax="418" yMax="731">
      <contour>
        <pt x="346" y="731" on="1"/>
        <pt x="418" y="731" on="1"/>
        <pt x="115" y="-73" on="1"/>
        <pt x="44" y="-73" on="1"/>
      </contour>
    </TTGlyph>
    <TTGlyph name="sterling" xMin="18" yMin="0" xMax="490" yMax="640">
      <contour>
        <pt x="24" y="69" on="1"/>
        <pt x="49" y="69" on="1"/>
        <pt x="116" y="69" on="0"/>
        <pt x="123" y="159" on="1"/>
        <pt x="133" y="267" on="1"/>
        <pt x="52" y="267" on="1"/>
        <pt x="57" y="323" on="1"/>
        <pt x="139" y="323" on="1"/>
        <pt x="149" y="432" on="1"/>
        <pt x="159" y="531" on="0"/>
        <pt x="253" y="640" on="0"/>
        <pt x="335" y="640" on="1"/>
        <pt x="398" y="640" on="0"/>
        <pt x="472" y="564" on="0"/>
        <pt x="475" y="490" on="1"/>
        <pt x="406" y="490" on="1"/>
        <pt x="402" y="529" on="0"/>
        <pt x="360" y="568" on="0"/>
        <pt x="283" y="568" on="0"/>
        <pt x="227" y="504" on="0"/>
        <pt x="220" y="432" on="1"/>
        <pt x="209" y="323" on="1"/>
        <pt x="373" y="323" on="1"/>
        <pt x="368" y="267" on="1"/>
        <pt x="204" y="267" on="1"/>
        <pt x="194" y="163" on="1"/>
        <pt x="186" y="93" on="0"/>
        <pt x="151" y="69" on="1"/>
        <pt x="317" y="69" on="1"/>
        <pt x="361" y="69" on="0"/>
        <pt x="405" y="110" on="0"/>
        <pt x="415" y="154" on="1"/>
        <pt x="490" y="154" on="1"/>
        <pt x="477" y="77" on="0"/>
        <pt x="438" y="41" on="1"/>
        <pt x="394" y="0" on="0"/>
        <pt x="310" y="0" on="1"/>
        <pt x="18" y="0" on="1"/>
      </contour>
    </TTGlyph>
    <TTGlyph name="t" xMin="69" yMin="-11" xMax="350" yMax="611">
      <contour>
        <pt x="317" y="14" on="1"/>
        <pt x="265" y="-11" on="0"/>
        <pt x="169" y="-11" on="0"/>
        <pt x="105" y="55" on="0"/>
        <pt x="112" y="124" on="1"/>
        <pt x="139" y="418" on="1"/>
        <pt x="69" y="418" on="1"/>
        <pt x="76" y="478" on="1"/>
        <pt x="144" y="478" on="1"/>
        <pt x="157" y="611" on="1"/>
        <pt x="228" y="611" on="1"/>
        <pt x="215" y="478" on="1"/>
        <pt x="350" y="478" on="1"/>
        <pt x="344" y="418" on="1"/>
        <pt x="209" y="418" on="1"/>
        <pt x="182" y="125" on="1"/>
        <pt x="177" y="88" on="0"/>
        <pt x="206" y="52" on="0"/>
        <pt x="268" y="52" on="0"/>
        <pt x="312" y="70" on="1"/>
      </contour>
    </TTGlyph>
    <TTGlyph name="three" xMin="55" yMin="-11" xMax="505" yMax="640">
      <contour>
        <pt x="321" y="640" on="1"/>
        <pt x="361" y="640" on="0"/>
        <pt x="430" y="614" on="0"/>
        <pt x="454" y="592" on="1"/>
        <pt x="505" y="544" on="0"/>
        <pt x="499" y="468" on="1"/>
        <pt x="488" y="367" on="0"/>
        <pt x="386" y="329" on="1"/>
        <pt x="438" y="312" on="0"/>
        <pt x="497" y="234" on="0"/>
        <pt x="488" y="132" on="0"/>
        <pt x="452" y="64" on="0"/>
        <pt x="423" y="40" on="1"/>
        <pt x="361" y="-11" on="0"/>
        <pt x="266" y="-11" on="1"/>
        <pt x="175" y="-11" on="0"/>
        <pt x="118" y="40" on="1"/>
        <pt x="55" y="97" on="0"/>
        <pt x="65" y="193" on="1"/>
        <pt x="139" y="193" on="1"/>
        <pt x="134" y="128" on="0"/>
        <pt x="211" y="61" on="0"/>
        <pt x="336" y="61" on="0"/>
        <pt x="411" y="128" on="0"/>
        <pt x="421" y="227" on="0"/>
        <pt x="360" y="290" on="0"/>
        <pt x="285" y="290" on="1"/>
        <pt x="220" y="290" on="1"/>
        <pt x="227" y="353" on="1"/>
        <pt x="271" y="353" on="1"/>
        <pt x="336" y="353" on="0"/>
        <pt x="416" y="410" on="0"/>
        <pt x="426" y="506" on="0"/>
        <pt x="370" y="568" on="0"/>
        <pt x="269" y="568" on="0"/>
        <pt x="198" y="529" on="0"/>
        <pt x="182" y="476" on="1"/>
        <pt x="108" y="476" on="1"/>
        <pt x="125" y="559" on="0"/>
        <pt x="185" y="602" on="1"/>
        <pt x="238" y="640" on="0"/>
      </contour>
    </TTGlyph>
    <TTGlyph name="three.propold" xMin="23" yMin="-114" xMax="463" yMax="551">
      <contour>
        <pt x="279" y="483" on="1"/>
        <pt x="179" y="483" on="0"/>
        <pt x="152" y="390" on="1"/>
        <pt x="77" y="390" on="1"/>
        <pt x="96" y="473" on="0"/>
        <pt x="153" y="514" on="1"/>
        <pt x="204" y="551" on="0"/>
        <pt x="284" y="551" on="1"/>
        <pt x="368" y="551" on="0"/>
        <pt x="416" y="504" on="1"/>
        <pt x="463" y="458" on="0"/>
        <pt x="457" y="384" on="1"/>
        <pt x="452" y="333" on="0"/>
        <pt x="395" y="271" on="0"/>
        <pt x="347" y="252" on="1"/>
        <pt x="401" y="232" on="0"/>
        <pt x="456" y="137" on="0"/>
        <pt x="446" y="33" on="0"/>
        <pt x="409" y="-36" on="0"/>
        <pt x="379" y="-61" on="1"/>
        <pt x="315" y="-114" on="0"/>
        <pt x="221" y="-114" on="1"/>
        <pt x="132" y="-114" on="0"/>
        <pt x="80" y="-64" on="1"/>
        <pt x="23" y="-10" on="0"/>
        <pt x="33" y="88" on="1"/>
        <pt x="105" y="88" on="1"/>
        <pt x="100" y="19" on="0"/>
        <pt x="169" y="-46" on="0"/>
        <pt x="228" y="-46" on="1"/>
        <pt x="288" y="-46" on="0"/>
        <pt x="331" y="-10" on="1"/>
        <pt x="372" y="23" on="0"/>
        <pt x="378" y="79" on="1"/>
        <pt x="385" y="169" on="0"/>
        <pt x="310" y="200" on="1"/>
        <pt x="283" y="211" on="0"/>
        <pt x="246" y="211" on="1"/>
        <pt x="191" y="211" on="1"/>
        <pt x="196" y="274" on="1"/>
        <pt x="235" y="274" on="1"/>
        <pt x="300" y="274" on="0"/>
        <pt x="379" y="326" on="0"/>
        <pt x="389" y="424" on="0"/>
        <pt x="333" y="483" on="0"/>
      </contour>
    </TTGlyph>
    <TTGlyph name="tilde" xMin="90" yMin="719" xMax="382" yMax="842">
      <contour>
        <pt x="173" y="770" on="1"/>
        <pt x="143" y="770" on="0"/>
        <pt x="117" y="719" on="1"/>
        <pt x="90" y="738" on="1"/>
        <pt x="122" y="842" on="0"/>
        <pt x="180" y="842" on="1"/>
        <pt x="199" y="842" on="0"/>
        <pt x="256" y="808" on="0"/>
        <pt x="274" y="798" on="0"/>
        <pt x="280" y="795" on="1"/>
        <pt x="290" y="790" on="0"/>
        <pt x="301" y="790" on="1"/>
        <pt x="330" y="790" on="0"/>
        <pt x="353" y="842" on="1"/>
        <pt x="382" y="819" on="1"/>
        <pt x="368" y="771" on="0"/>
        <pt x="319" y="719" on="0"/>
        <pt x="281" y="719" on="0"/>
        <pt x="253" y="731" on="0"/>
        <pt x="227" y="746" on="1"/>
        <pt x="188" y="770" on="0"/>
      </contour>
    </TTGlyph>
    <TTGlyph name="two" xMin="58" yMin="0" xMax="513" yMax="640">
      <contour>
        <pt x="135" y="73" on="1"/>
        <pt x="463" y="73" on="1"/>
        <pt x="457" y="0" on="1"/>
        <pt x="58" y="0" on="1"/>
        <pt x="66" y="93" on="1"/>
        <pt x="77" y="204" on="0"/>
        <pt x="158" y="256" on="1"/>
        <pt x="183" y="273" on="0"/>
        <pt x="214" y="286" on="1"/>
        <pt x="330" y="336" on="1"/>
        <pt x="420" y="374" on="0"/>
        <pt x="428" y="461" on="1"/>
        <pt x="433" y="509" on="0"/>
        <pt x="379" y="570" on="0"/>
        <pt x="272" y="570" on="0"/>
        <pt x="200" y="520" on="0"/>
        <pt x="190" y="470" on="1"/>
        <pt x="112" y="470" on="1"/>
        <pt x="124" y="552" on="0"/>
        <pt x="241" y="640" on="0"/>
        <pt x="331" y="640" on="1"/>
        <pt x="415" y="640" on="0"/>
        <pt x="463" y="588" on="1"/>
        <pt x="513" y="535" on="0"/>
        <pt x="497" y="383" on="0"/>
        <pt x="418" y="293" on="0"/>
        <pt x="353" y="266" on="1"/>
        <pt x="234" y="215" on="1"/>
        <pt x="189" y="195" on="0"/>
        <pt x="142" y="144" on="0"/>
        <pt x="138" y="103" on="1"/>
      </contour>
    </TTGlyph>
    <TTGlyph name="two.propold" xMin="58" yMin="0" xMax="493" yMax="551">
      <contour>
        <pt x="135" y="73" on="1"/>
        <pt x="456" y="73" on="1"/>
        <pt x="450" y="0" on="1"/>
        <pt x="58" y="0" on="1"/>
        <pt x="65" y="84" on="1"/>
        <pt x="73" y="164" on="0"/>
        <pt x="147" y="247" on="0"/>
        <pt x="217" y="264" on="1"/>
        <pt x="312" y="289" on="1"/>
        <pt x="361" y="301" on="0"/>
        <pt x="411" y="349" on="0"/>
        <pt x="419" y="427" on="0"/>
        <pt x="366" y="481" on="0"/>
        <pt x="262" y="481" on="0"/>
        <pt x="192" y="435" on="0"/>
        <pt x="182" y="388" on="1"/>
        <pt x="103" y="388" on="1"/>
        <pt x="116" y="466" on="0"/>
        <pt x="228" y="551" on="0"/>
        <pt x="317" y="551" on="1"/>
        <pt x="397" y="551" on="0"/>
        <pt x="446" y="502" on="1"/>
        <pt x="493" y="455" on="0"/>
        <pt x="481" y="322" on="0"/>
        <pt x="407" y="249" on="0"/>
        <pt x="337" y="231" on="1"/>
        <pt x="235" y="204" on="1"/>
        <pt x="143" y="182" on="0"/>
        <pt x="139" y="105" on="1"/>
      </contour>
    </TTGlyph>
    <TTGlyph name="u" xMin="86" yMin="-9" xMax="499" yMax="479">
      <contour>
        <pt x="392" y="95" on="1"/>
        <pt x="339" y="-9" on="0"/>
        <pt x="239" y="-9" on="1"/>
        <pt x="166" y="-9" on="0"/>
        <pt x="86" y="81" on="0"/>
        <pt x="94" y="175" on="1"/>
        <pt x="123" y="479" on="1"/>
        <pt x="194" y="479" on="1"/>
        <pt x="166" y="181" on="1"/>
        <pt x="154" y="60" on="0"/>
        <pt x="256" y="60" on="1"/>
        <pt x="316" y="60" on="0"/>
        <pt x="358" y="112" on="1"/>
        <pt x="398" y="163" on="0"/>
        <pt x="406" y="246" on="1"/>
        <pt x="428" y="479" on="1"/>
        <pt x="499" y="479" on="1"/>
        <pt x="454" y="0" on="1"/>
        <pt x="383" y="0" on="1"/>
      </contour>
    </TTGlyph>
    <TTGlyph name="uacute" xMin="86" yMin="-9" xMax="499" yMax="769">
      <contour>
        <pt x="256" y="60" on="1"/>
        <pt x="316" y="60" on="0"/>
        <pt x="358" y="112" on="1"/>
        <pt x="398" y="163" on="0"/>
        <pt x="406" y="246" on="1"/>
        <pt x="428" y="479" on="1"/>
        <pt x="499" y="479" on="1"/>
        <pt x="454" y="0" on="1"/>
        <pt x="383" y="0" on="1"/>
        <pt x="392" y="95" on="1"/>
        <pt x="339" y="-9" on="0"/>
        <pt x="239" y="-9" on="1"/>
        <pt x="166" y="-9" on="0"/>
        <pt x="86" y="81" on="0"/>
        <pt x="94" y="175" on="1"/>
        <pt x="123" y="479" on="1"/>
        <pt x="194" y="479" on="1"/>
        <pt x="166" y="181" on="1"/>
        <pt x="154" y="60" on="0"/>
      </contour>
      <contour>
        <pt x="456" y="699" on="1"/>
        <pt x="225" y="586" on="1"/>
        <pt x="209" y="636" on="1"/>
        <pt x="433" y="769" on="1"/>
      </contour>
    </TTGlyph>
    <TTGlyph name="ucircumflex" xMin="86" yMin="-9" xMax="499" yMax="781">
      <contour>
        <pt x="392" y="95" on="1"/>
        <pt x="339" y="-9" on="0"/>
        <pt x="239" y="-9" on="1"/>
        <pt x="166" y="-9" on="0"/>
        <pt x="86" y="81" on="0"/>
        <pt x="94" y="175" on="1"/>
        <pt x="123" y="479" on="1"/>
        <pt x="194" y="479" on="1"/>
        <pt x="166" y="181" on="1"/>
        <pt x="154" y="60" on="0"/>
        <pt x="256" y="60" on="1"/>
        <pt x="316" y="60" on="0"/>
        <pt x="358" y="112" on="1"/>
        <pt x="398" y="163" on="0"/>
        <pt x="406" y="246" on="1"/>
        <pt x="428" y="479" on="1"/>
        <pt x="499" y="479" on="1"/>
        <pt x="454" y="0" on="1"/>
        <pt x="383" y="0" on="1"/>
      </contour>
      <contour>
        <pt x="490" y="625" on="1"/>
        <pt x="442" y="586" on="1"/>
        <pt x="335" y="694" on="1"/>
        <pt x="208" y="586" on="1"/>
        <pt x="167" y="625" on="1"/>
        <pt x="343" y="781" on="1"/>
      </contour>
    </TTGlyph>
    <TTGlyph name="udieresis" xMin="86" yMin="-9" xMax="499" yMax="705">
      <contour>
        <pt x="392" y="95" on="1"/>
        <pt x="339" y="-9" on="0"/>
        <pt x="239" y="-9" on="1"/>
        <pt x="166" y="-9" on="0"/>
        <pt x="86" y="81" on="0"/>
        <pt x="94" y="175" on="1"/>
        <pt x="123" y="479" on="1"/>
        <pt x="194" y="479" on="1"/>
        <pt x="166" y="181" on="1"/>
        <pt x="154" y="60" on="0"/>
        <pt x="256" y="60" on="1"/>
        <pt x="316" y="60" on="0"/>
        <pt x="358" y="112" on="1"/>
        <pt x="398" y="163" on="0"/>
        <pt x="406" y="246" on="1"/>
        <pt x="428" y="479" on="1"/>
        <pt x="499" y="479" on="1"/>
        <pt x="454" y="0" on="1"/>
        <pt x="383" y="0" on="1"/>
      </contour>
      <contour>
        <pt x="230" y="605" on="0"/>
        <pt x="207" y="634" on="0"/>
        <pt x="211" y="676" on="0"/>
        <pt x="240" y="705" on="0"/>
        <pt x="281" y="705" on="0"/>
        <pt x="306" y="676" on="0"/>
        <pt x="302" y="634" on="0"/>
        <pt x="271" y="605" on="0"/>
      </contour>
      <contour>
        <pt x="381" y="605" on="0"/>
        <pt x="358" y="634" on="0"/>
        <pt x="362" y="676" on="0"/>
        <pt x="391" y="705" on="0"/>
        <pt x="432" y="705" on="0"/>
        <pt x="457" y="676" on="0"/>
        <pt x="453" y="634" on="0"/>
        <pt x="422" y="605" on="0"/>
      </contour>
    </TTGlyph>
    <TTGlyph name="ugrave" xMin="86" yMin="-9" xMax="499" yMax="769">
      <contour>
        <pt x="392" y="95" on="1"/>
        <pt x="339" y="-9" on="0"/>
        <pt x="239" y="-9" on="1"/>
        <pt x="166" y="-9" on="0"/>
        <pt x="86" y="81" on="0"/>
        <pt x="94" y="175" on="1"/>
        <pt x="123" y="479" on="1"/>
        <pt x="194" y="479" on="1"/>
        <pt x="166" y="181" on="1"/>
        <pt x="154" y="60" on="0"/>
        <pt x="256" y="60" on="1"/>
        <pt x="316" y="60" on="0"/>
        <pt x="358" y="112" on="1"/>
        <pt x="398" y="163" on="0"/>
        <pt x="406" y="246" on="1"/>
        <pt x="428" y="479" on="1"/>
        <pt x="499" y="479" on="1"/>
        <pt x="454" y="0" on="1"/>
        <pt x="383" y="0" on="1"/>
      </contour>
      <contour>
        <pt x="252" y="769" on="1"/>
        <pt x="451" y="636" on="1"/>
        <pt x="426" y="586" on="1"/>
        <pt x="216" y="699" on="1"/>
      </contour>
    </TTGlyph>
    <TTGlyph name="underscore" xMin="38" yMin="-124" xMax="598" yMax="-56">
      <contour>
        <pt x="44" y="-56" on="1"/>
        <pt x="598" y="-56" on="1"/>
        <pt x="592" y="-124" on="1"/>
        <pt x="38" y="-124" on="1"/>
      </contour>
    </TTGlyph>
    <TTGlyph name="v" xMin="61" yMin="0" xMax="481" yMax="478">
      <contour>
        <pt x="141" y="478" on="1"/>
        <pt x="234" y="83" on="1"/>
        <pt x="401" y="478" on="1"/>
        <pt x="481" y="478" on="1"/>
        <pt x="265" y="0" on="1"/>
        <pt x="187" y="0" on="1"/>
        <pt x="61" y="478" on="1"/>
      </contour>
    </TTGlyph>
    <TTGlyph name="w" xMin="61" yMin="0" xMax="679" yMax="478">
      <contour>
        <pt x="135" y="478" on="1"/>
        <pt x="204" y="98" on="1"/>
        <pt x="339" y="455" on="1"/>
        <pt x="399" y="455" on="1"/>
        <pt x="467" y="93" on="1"/>
        <pt x="608" y="478" on="1"/>
        <pt x="679" y="478" on="1"/>
        <pt x="493" y="0" on="1"/>
        <pt x="424" y="0" on="1"/>
        <pt x="356" y="335" on="1"/>
        <pt x="228" y="0" on="1"/>
        <pt x="159" y="0" on="1"/>
        <pt x="61" y="478" on="1"/>
      </contour>
    </TTGlyph>
    <TTGlyph name="x" xMin="23" yMin="0" xMax="482" yMax="479">
      <contour>
        <pt x="436" y="0" on="1"/>
        <pt x="350" y="0" on="1"/>
        <pt x="244" y="181" on="1"/>
        <pt x="110" y="0" on="1"/>
        <pt x="23" y="0" on="1"/>
        <pt x="209" y="239" on="1"/>
        <pt x="68" y="479" on="1"/>
        <pt x="155" y="479" on="1"/>
        <pt x="261" y="299" on="1"/>
        <pt x="396" y="479" on="1"/>
        <pt x="482" y="479" on="1"/>
        <pt x="295" y="239" on="1"/>
      </contour>
    </TTGlyph>
    <TTGlyph name="y" xMin="-15" yMin="-246" xMax="458" yMax="478">
      <contour>
        <pt x="-8" y="-139" on="1"/>
        <pt x="32" y="-177" on="0"/>
        <pt x="80" y="-177" on="1"/>
        <pt x="145" y="-177" on="0"/>
        <pt x="188" y="-49" on="1"/>
        <pt x="206" y="0" on="1"/>
        <pt x="75" y="478" on="1"/>
        <pt x="154" y="478" on="1"/>
        <pt x="248" y="98" on="1"/>
        <pt x="386" y="478" on="1"/>
        <pt x="458" y="478" on="1"/>
        <pt x="243" y="-95" on="1"/>
        <pt x="215" y="-168" on="0"/>
        <pt x="140" y="-246" on="0"/>
        <pt x="36" y="-246" on="0"/>
        <pt x="-15" y="-211" on="1"/>
      </contour>
    </TTGlyph>
    <TTGlyph name="z" xMin="48" yMin="0" xMax="426" yMax="478">
      <contour>
        <pt x="53" y="64" on="1"/>
        <pt x="339" y="414" on="1"/>
        <pt x="86" y="414" on="1"/>
        <pt x="93" y="478" on="1"/>
        <pt x="426" y="478" on="1"/>
        <pt x="419" y="414" on="1"/>
        <pt x="137" y="64" on="1"/>
        <pt x="386" y="64" on="1"/>
        <pt x="381" y="0" on="1"/>
        <pt x="48" y="0" on="1"/>
      </contour>
    </TTGlyph>
    <TTGlyph name="zero" xMin="60" yMin="-11" xMax="533" yMax="640">
      <contour>
        <pt x="328" y="640" on="1"/>
        <pt x="431" y="640" on="0"/>
        <pt x="481" y="558" on="1"/>
        <pt x="533" y="475" on="0"/>
        <pt x="519" y="315" on="1"/>
        <pt x="495" y="74" on="0"/>
        <pt x="358" y="10" on="1"/>
        <pt x="315" y="-11" on="0"/>
        <pt x="265" y="-11" on="1"/>
        <pt x="163" y="-11" on="0"/>
        <pt x="113" y="70" on="1"/>
        <pt x="60" y="156" on="0"/>
        <pt x="76" y="315" on="1"/>
        <pt x="90" y="473" on="0"/>
        <pt x="159" y="558" on="1"/>
        <pt x="225" y="640" on="0"/>
      </contour>
      <contour>
        <pt x="457" y="437" on="0"/>
        <pt x="394" y="568" on="0"/>
        <pt x="248" y="568" on="0"/>
        <pt x="161" y="437" on="0"/>
        <pt x="137" y="192" on="0"/>
        <pt x="201" y="61" on="0"/>
        <pt x="346" y="61" on="0"/>
        <pt x="433" y="192" on="0"/>
      </contour>
    </TTGlyph>
    <TTGlyph name="zero.propold" xMin="57" yMin="-11" xMax="471" yMax="551">
      <contour>
        <pt x="471" y="405" on="0"/>
        <pt x="444" y="130" on="0"/>
        <pt x="323" y="-11" on="0"/>
        <pt x="238" y="-11" on="1"/>
        <pt x="149" y="-11" on="0"/>
        <pt x="104" y="60" on="1"/>
        <pt x="57" y="134" on="0"/>
        <pt x="85" y="411" on="0"/>
        <pt x="204" y="551" on="0"/>
        <pt x="379" y="551" on="0"/>
      </contour>
      <contour>
        <pt x="385" y="270" on="1"/>
        <pt x="405" y="482" on="0"/>
        <pt x="284" y="482" on="1"/>
        <pt x="222" y="482" on="0"/>
        <pt x="154" y="374" on="0"/>
        <pt x="144" y="270" on="1"/>
        <pt x="122" y="59" on="0"/>
        <pt x="245" y="59" on="1"/>
        <pt x="308" y="59" on="0"/>
        <pt x="375" y="166" on="0"/>
      </contour>
    </TTGlyph>
</ttFont>
